<?xml version="1.0" encoding="UTF-8"?>
<svg width="699px" height="112px" viewBox="0 0 699 112" version="1.1" xmlns="http://www.w3.org/2000/svg" xmlns:xlink="http://www.w3.org/1999/xlink">
    <!-- Generator: Sketch 52.5 (67469) - http://www.bohemiancoding.com/sketch -->
    <title>Joshua &amp; Kelsie</title>
    <desc>Created with Sketch.</desc>
    <g id="Page-1" stroke="none" stroke-width="1" fill="none" fill-rule="evenodd">
        <g id="Home-Page" transform="translate(-1004.000000, -386.000000)" fill="#FFFFFF">
            <path d="M1004,495.617021 C1004,494.624109 1004.65053,493.895983 1005.9516,493.432624 C1015.22591,489.858138 1024.50009,478.936262 1033.77441,460.666667 C1041.04707,446.368723 1046.75169,431.309772 1050.88843,415.489362 C1052.52311,409.234011 1053.34044,404.716326 1053.34044,401.93617 C1053.34044,400.91016 1053.10692,400.397163 1052.63987,400.397163 C1048.23624,400.397163 1042.66506,403.739919 1035.92617,410.425532 C1035.25895,411.087474 1034.51668,411.41844 1033.69934,411.41844 C1032.882,411.41844 1032.08135,411.252957 1031.29737,410.921986 C1030.5134,410.591015 1029.80449,410.160759 1029.17063,409.631206 C1027.66939,408.472807 1026.91879,407.289604 1026.91879,406.08156 C1026.91879,404.873516 1027.30243,403.756506 1028.06973,402.730496 C1028.83703,401.704487 1029.8712,400.711589 1031.17227,399.751773 C1032.47335,398.791957 1033.95788,397.906623 1035.62592,397.095745 C1037.29397,396.284866 1039.04538,395.565015 1040.88023,394.93617 C1044.75009,393.645384 1047.7275,393 1049.81255,393 C1051.8976,393 1053.72408,393.124112 1055.29204,393.37234 C1056.86,393.620569 1058.36122,394.04255 1059.79573,394.638298 C1063.26526,396.127667 1065,398.262397 1065,401.042553 C1065,406.007117 1063.43206,413.933752 1060.29614,424.822695 C1056.96006,436.340483 1052.58985,447.609874 1047.1854,458.631206 C1039.37896,474.120645 1031.13896,485.257649 1022.46514,492.042553 C1017.39429,496.014204 1012.5904,498 1008.05332,498 C1006.35192,498 1005.11759,497.553196 1004.35029,496.659574 C1004.11676,496.361701 1004,496.014186 1004,495.617021 Z M1069.50895,466.11866 C1068.12225,464.7917 1067.03272,463.108144 1066.24032,461.067943 C1065.44792,459.027741 1065.03522,456.614368 1065.0022,453.827751 C1064.96918,451.041134 1065.3076,448.221386 1066.01746,445.368421 C1066.72732,442.515456 1067.73431,439.762055 1069.03847,437.108134 C1070.34263,434.454213 1071.9109,431.9662 1073.74332,429.644019 C1075.57575,427.321838 1077.59799,425.298254 1079.8101,423.573206 C1084.63054,419.857717 1089.63249,418 1094.81611,418 C1101.61754,418 1106.2233,421.002203 1108.63351,427.006699 C1110.35038,431.352494 1110.44943,436.610495 1108.93066,442.780861 C1107.54396,448.453617 1105.00172,453.661858 1101.30385,458.405742 C1097.639,463.149625 1093.31388,466.516736 1088.32836,468.507177 C1085.8191,469.502397 1083.35114,470 1080.92441,470 C1078.49769,470 1076.33513,469.684852 1074.43667,469.054545 C1072.53821,468.424239 1070.89565,467.445621 1069.50895,466.11866 Z M1079.14717,442.462577 C1078.1645,444.944389 1077.38657,447.493238 1076.81335,450.109202 C1076.24013,452.725166 1075.9699,455.198557 1076.00266,457.529448 C1076.03541,459.860339 1076.38753,461.688132 1077.05901,463.012883 C1077.7305,464.337634 1078.8196,465 1080.32636,465 C1081.83311,465 1083.31527,464.471784 1084.77289,463.415337 C1086.23051,462.35889 1087.64716,460.9587 1089.02289,459.214724 C1090.39862,457.470748 1091.69244,455.458498 1092.90439,453.177914 C1094.11635,450.89733 1095.18088,448.516168 1096.09804,446.034356 C1098.09612,440.634738 1099.06239,435.838876 1098.99688,431.646626 C1098.99688,427.957446 1098.25989,425.609821 1096.7859,424.603681 C1096.1963,424.201225 1095.36924,424 1094.30468,424 C1093.24013,424 1092.02001,424.494678 1090.64428,425.484049 C1089.26855,426.47342 1087.89284,427.806536 1086.51711,429.483436 C1085.14138,431.160336 1083.8148,433.122279 1082.53734,435.369325 C1081.25988,437.616371 1080.12983,439.980765 1079.14717,442.462577 Z M1115,460.785441 C1115,459.756061 1115.22393,458.801409 1115.6718,457.921456 C1116.11967,457.041503 1116.67535,456.302685 1117.33886,455.704981 C1118.73223,454.409955 1120.19194,453.762452 1121.71801,453.762452 C1123.04503,453.762452 1123.70853,454.44316 1123.70853,455.804598 C1123.70853,459.257999 1124.85307,461.665383 1127.14218,463.02682 C1127.97157,463.524907 1128.83412,463.773946 1129.72986,463.773946 C1130.6256,463.773946 1131.38862,463.67433 1132.01896,463.475096 C1132.64929,463.275861 1133.22986,462.960411 1133.76066,462.528736 C1134.95498,461.565768 1135.55213,460.420185 1135.55213,459.091954 C1135.55213,457.763723 1135.25356,456.543428 1134.6564,455.431034 C1134.05924,454.318641 1133.3128,453.148154 1132.41706,451.91954 L1129.58057,447.934866 C1125.59951,442.62194 1123.609,437.72416 1123.609,433.241379 C1123.609,429.522331 1125.18482,426.151995 1128.33649,423.130268 C1131.91945,419.710072 1136.51419,418 1142.12085,418 C1147.03083,418 1150.86255,419.211993 1153.61611,421.636015 C1155.87205,423.595157 1157,425.836514 1157,428.360153 C1157,430.98341 1156.00475,433.075343 1154.01422,434.636015 C1152.22274,436.030658 1150.43129,436.54534 1148.63981,436.180077 C1147.8436,436.014048 1147.22986,435.607283 1146.79858,434.95977 C1146.3673,434.312257 1146.28436,433.57344 1146.54976,432.743295 C1146.81517,431.91315 1146.94787,431.049813 1146.94787,430.153257 C1146.94787,429.2567 1146.78199,428.426568 1146.45024,427.662835 C1146.11848,426.899102 1145.67062,426.251599 1145.10664,425.720307 C1143.94549,424.624516 1142.72631,424.076628 1141.44905,424.076628 C1140.17179,424.076628 1139.11849,424.217751 1138.2891,424.5 C1137.45971,424.782249 1136.72986,425.189014 1136.09953,425.720307 C1134.80568,426.915715 1134.15877,428.385049 1134.15877,430.128352 C1134.15877,431.871656 1134.45734,433.374195 1135.0545,434.636015 C1135.65166,435.897835 1136.38981,437.159636 1137.26896,438.421456 C1138.14811,439.683276 1139.10189,440.961679 1140.13033,442.256705 C1141.15877,443.551731 1142.10426,444.913147 1142.96682,446.340996 C1145.05688,449.69478 1146.1019,452.64175 1146.1019,455.181992 C1146.1019,457.722235 1145.5711,459.847373 1144.50948,461.557471 C1143.44786,463.267569 1142.0711,464.736903 1140.37915,465.965517 C1136.76302,468.655186 1132.71566,470 1128.23697,470 C1123.95732,470 1120.57347,468.970636 1118.08531,466.911877 C1116.02843,465.185177 1115,463.143051 1115,460.785441 Z M1196.86282,427.603774 C1195.02427,427.603774 1191.73165,430.377331 1186.98486,435.924528 L1182.82308,440.976415 L1174.80038,451.32783 C1172.86155,454.959924 1171.34059,457.98112 1170.23746,460.391509 L1167.5298,466.136792 C1166.82781,467.556611 1166.21776,468.555422 1165.69962,469.133255 C1165.18149,469.711088 1164.47951,470 1163.59366,470 C1162.70782,470 1161.85541,469.843162 1161.03642,469.529481 C1160.21744,469.2158 1159.5071,468.811323 1158.90539,468.316038 C1157.63512,467.259429 1157,466.10378 1157,464.849057 C1157,464.353771 1157.35099,463.379724 1158.05298,461.926887 L1160.05866,457.915094 C1166.30971,445.202767 1171.97569,429.08972 1177.05676,409.575472 C1178.92874,402.377322 1180.28256,395.905689 1181.11826,390.160377 C1181.48597,387.386779 1182.8565,386 1185.2299,386 C1186.76759,386 1188.03784,386.363204 1189.04068,387.089623 C1190.97951,388.509441 1191.91548,390.028294 1191.84863,391.646226 C1191.78177,393.264159 1191.54778,395.080179 1191.14664,397.09434 C1190.7455,399.108501 1190.22738,401.295979 1189.59224,403.65684 C1188.95711,406.0177 1188.23841,408.502345 1187.43614,411.110849 C1185.22988,417.747675 1183.59193,422.535363 1182.52223,425.474057 C1179.24628,434.356176 1177.22391,439.556596 1176.45506,441.075472 C1176.95648,440.481129 1177.60832,439.672175 1178.4106,438.648585 C1184.49451,430.757036 1188.25512,426.04364 1189.69253,424.508255 C1191.12993,422.97287 1192.35004,421.792457 1193.35289,420.966981 C1195.45886,419.150934 1198.13306,418.242925 1201.37559,418.242925 C1204.01641,418.242925 1206.13906,419.117916 1207.74361,420.867925 C1209.24788,422.551895 1210,424.392679 1210,426.39033 C1210,428.387982 1209.77436,430.187492 1209.32308,431.788915 C1208.8718,433.390338 1208.29518,435.016501 1207.59319,436.667453 C1206.8912,438.318404 1206.12236,440.018859 1205.28666,441.768868 L1202.77956,446.96934 C1200.4396,452.219366 1199.26963,456.115553 1199.26963,458.658019 C1199.26963,460.441047 1200.00504,461.332547 1201.47588,461.332547 C1202.87986,461.332547 1204.15846,461.03538 1205.31173,460.441038 C1206.465,459.846695 1207.20877,459.549528 1207.54305,459.549528 C1208.24504,459.549528 1208.59603,459.896223 1208.59603,460.589623 C1208.59603,463.528317 1207.09178,465.988198 1204.08325,467.96934 C1202.01071,469.32312 1200.12205,470 1198.41722,470 C1196.71239,470 1195.30007,469.826653 1194.18023,469.479953 C1193.06039,469.133253 1192.06591,468.563683 1191.19678,467.771226 C1189.22452,465.988199 1188.23841,463.363225 1188.23841,459.896226 C1188.23841,456.165076 1189.47523,451.476443 1191.94891,445.830189 L1197.36424,434.438679 C1198.40051,432.325461 1198.91864,430.658025 1198.91864,429.436321 C1198.91864,428.214617 1198.23337,427.603774 1196.86282,427.603774 Z M1263.22857,459.699522 C1263.98528,459.699522 1264.36363,460.081017 1264.36363,460.844019 C1264.36363,463.730158 1262.94893,466.151824 1260.11948,468.109091 C1258.21124,469.369703 1255.97404,470 1253.40779,470 C1251.30215,470 1249.69005,469.502397 1248.57143,468.507177 C1246.56449,466.715781 1245.56104,464.526329 1245.56104,461.938756 C1245.56104,458.654529 1246.92639,453.628742 1249.65714,446.861244 C1244.59045,453.761438 1241.03724,458.347676 1238.9974,460.620096 C1236.95756,462.892515 1235.18096,464.659005 1233.66753,465.919617 C1230.37747,468.639886 1227.40001,470 1224.73506,470 C1220.65539,470 1217.94113,468.225217 1216.59221,464.675598 C1216.1974,463.580856 1216,462.328556 1216,460.91866 C1216,459.508765 1216.23853,457.933023 1216.71558,456.191388 C1217.19264,454.449752 1217.80952,452.633502 1218.56623,450.742584 C1219.32295,448.851665 1220.14545,446.911015 1221.03377,444.920574 L1223.6987,438.949282 C1227.12036,431.286086 1228.38702,426.741315 1227.4987,425.314833 C1227.10389,424.684526 1226.36364,424.05423 1225.27792,423.423923 C1224.88311,423.191705 1224.68571,422.78533 1224.68571,422.204785 C1224.68571,421.62424 1224.92424,421.068583 1225.4013,420.537799 C1225.87836,420.007015 1226.49523,419.542586 1227.25195,419.144498 C1228.86408,418.381495 1230.47618,418 1232.08831,418 C1233.70044,418 1234.92597,418.174161 1235.76493,418.522488 C1236.6039,418.870815 1237.28658,419.310364 1237.81299,419.841148 C1238.89871,420.935891 1239.44156,422.146724 1239.44156,423.473684 C1239.44156,424.800645 1239.22771,426.285159 1238.8,427.927273 C1238.37229,429.569386 1237.81299,431.352462 1237.12208,433.276555 C1236.43116,435.200648 1235.67446,437.191058 1234.85195,439.247847 C1232.58181,444.622036 1231.05195,448.171602 1230.26234,449.896651 L1228.43636,453.72823 C1227.41644,456.017236 1226.90649,457.626152 1226.90649,458.555024 C1226.90649,459.483896 1227.05454,460.139073 1227.35065,460.520574 C1227.64675,460.902075 1228.18138,461.092823 1228.95454,461.092823 C1229.72771,461.092823 1230.62424,460.727914 1231.64416,459.998086 C1232.66407,459.268258 1233.78268,458.289639 1235,457.062201 C1236.21732,455.834763 1237.48398,454.416595 1238.8,452.807656 C1240.11602,451.198716 1241.39913,449.531747 1242.64935,447.806699 C1245.11689,444.42295 1246.9264,441.702722 1248.07792,439.645933 C1255.05285,427.205679 1258.77056,420.703671 1259.23117,420.139713 C1260.28399,418.713231 1261.36146,418 1262.46363,418 C1263.5658,418 1264.52813,418.124401 1265.35065,418.373206 C1266.17316,418.622011 1266.88051,418.978626 1267.47273,419.443062 C1268.85455,420.471456 1269.2987,421.499835 1268.80519,422.52823 C1260.77745,439.413801 1256.45108,450.029324 1255.82597,454.37512 C1255.66147,455.86795 1255.57922,456.896329 1255.57922,457.460287 C1255.57922,459.981512 1256.33592,461.242105 1257.84935,461.242105 C1259.26407,461.242105 1260.43203,460.985011 1261.35324,460.470813 C1262.27446,459.956616 1262.89956,459.699522 1263.22857,459.699522 Z M1311.8338,456.22534 C1311.8338,459.274104 1312.91597,460.798463 1315.08033,460.798463 C1316.57873,460.798463 1317.81906,460.566495 1318.80135,460.102553 C1319.78364,459.63861 1320.44126,459.406643 1320.77424,459.406643 C1321.47349,459.406643 1321.82312,459.771163 1321.82312,460.500215 C1321.82312,463.350147 1320.32473,465.802376 1317.32792,467.856978 C1314.16463,470.010996 1310.93478,470.541208 1307.63829,469.447629 C1305.47393,468.685438 1303.87566,467.045096 1302.84342,464.526552 C1302.34395,463.234141 1302.09422,462.057734 1302.09422,460.997294 C1302.09422,459.27408 1302.26071,457.451477 1302.59369,455.52943 C1299.49699,461.82579 1295.65114,466.166899 1291.05603,468.552888 C1289.22465,469.480772 1287.27675,469.944708 1285.21229,469.944708 C1283.14782,469.944708 1281.35808,469.522195 1279.84303,468.677158 C1278.32798,467.83212 1277.0377,466.663997 1275.97217,465.172754 C1273.80781,462.057713 1272.82554,458.147401 1273.02533,453.4417 C1273.22511,447.543005 1274.97322,441.760383 1278.26971,436.093659 C1281.29982,430.791461 1285.12902,426.466921 1289.75742,423.119909 C1294.38583,419.706619 1298.71449,418 1302.74353,418 C1306.77257,418 1310.01907,419.839172 1312.48311,423.517572 C1314.78066,419.839172 1316.8118,418 1318.57659,418 C1320.47457,418 1321.90635,418.347952 1322.87199,419.043865 C1324.70338,420.369414 1325.35267,421.529253 1324.81991,422.523415 C1316.46214,439.556725 1312.16678,450.160961 1311.9337,454.336442 C1311.8671,454.932939 1311.8338,455.562565 1311.8338,456.22534 Z M1284,457.023591 C1284,461.007884 1285.29107,463 1287.87324,463 C1289.85179,463 1292.28302,461.339903 1295.167,458.019659 C1299.39238,453.138901 1303.13144,446.564917 1306.38431,438.29751 C1307.42388,435.70772 1308.29577,433.117968 1309,430.528178 C1308.86586,428.270412 1307.91014,426.610315 1306.1328,425.547837 C1305.52917,425.182611 1304.63213,425 1303.44165,425 C1302.25117,425 1300.8595,425.431625 1299.2666,426.294889 C1297.6737,427.158152 1296.13113,428.336821 1294.63883,429.830931 C1293.14654,431.32504 1291.75487,433.093044 1290.46378,435.134993 C1289.1727,437.176943 1288.04092,439.393173 1287.06841,441.783748 C1285.02279,446.896924 1284,451.976821 1284,457.023591 Z M1407.2719,404.103448 C1407.2719,400.650047 1404.91334,398.923372 1400.19617,398.923372 C1394.77643,398.923372 1389.65787,401.496781 1384.84033,406.643678 C1381.99664,409.69861 1379.98936,413.019139 1378.81843,416.605364 C1378.21624,418.332065 1377.91515,419.892713 1377.91515,421.287356 C1377.91515,422.681999 1378.07406,423.81928 1378.39188,424.699234 C1378.7097,425.579187 1379.11952,426.301402 1379.62135,426.8659 C1380.65846,428.094514 1381.86283,428.559388 1383.23449,428.260536 C1384.87379,427.596421 1386.32071,427.264368 1387.57527,427.264368 C1388.82984,427.264368 1389.83348,427.422093 1390.58622,427.737548 C1391.33896,428.053003 1391.96624,428.443165 1392.46807,428.908046 C1393.40481,429.837808 1393.87318,430.734351 1393.87318,431.597701 C1393.87318,433.291196 1393.30445,434.171136 1392.16697,434.237548 C1390.7284,434.337165 1388.99712,434.818642 1386.97308,435.681992 C1384.94905,436.545343 1383.00031,437.649419 1381.12682,438.994253 C1379.25334,440.339087 1377.5806,441.858229 1376.10858,443.551724 C1372.76306,447.337184 1371.09033,451.188997 1371.09033,455.10728 C1371.09033,459.191591 1372.71288,461.897822 1375.95803,463.226054 C1377.02859,463.690935 1378.35005,463.923372 1379.92245,463.923372 C1381.49484,463.923372 1383.02539,463.583017 1384.51414,462.902299 C1386.0029,462.22158 1387.29926,461.366544 1388.40328,460.337165 C1390.7786,458.079171 1391.9997,455.704993 1392.06661,453.214559 C1392.13352,450.06001 1390.82878,448.084295 1388.15237,447.287356 C1387.44981,447.088122 1386.88945,446.863986 1386.47126,446.614943 C1386.05307,446.365899 1385.93598,445.959134 1386.11998,445.394636 C1386.30399,444.830138 1386.68035,444.265648 1387.24909,443.701149 C1388.6542,442.173683 1390.20985,441.409962 1391.91606,441.409962 C1392.68553,441.409962 1393.83971,441.575988 1395.37865,441.908046 C1398.25579,442.538956 1400.34671,442.854406 1401.65146,442.854406 C1404.39478,442.854406 1406.55261,442.663476 1408.125,442.281609 C1409.69739,441.899743 1411.00212,441.575991 1412.03923,441.310345 C1413.81236,440.812258 1414.69891,441.227324 1414.69891,442.555556 C1414.69891,443.883787 1414.3309,445.104081 1413.59489,446.216475 C1412.85888,447.328869 1411.87196,448.300124 1410.63412,449.130268 C1407.95771,450.890175 1404.67916,451.73691 1400.79836,451.670498 C1400.89872,452.168585 1400.94891,452.666664 1400.94891,453.164751 C1400.94891,455.024275 1400.32999,456.950182 1399.09215,458.942529 C1397.85431,460.934876 1396.18158,462.761167 1394.07391,464.421456 C1389.28982,468.140504 1383.81998,470 1377.66423,470 C1371.5754,470 1366.94193,468.30653 1363.76369,464.91954 C1361.25455,462.229872 1360,459.075369 1360,455.455939 C1360,448.217077 1363.01092,441.791854 1369.03285,436.180077 C1371.07361,434.254141 1373.01398,432.92593 1374.85401,432.195402 C1371.27431,430.701142 1368.88231,427.795679 1367.67792,423.478927 C1367.30991,422.084284 1367.12591,420.457225 1367.12591,418.597701 C1367.12591,416.738177 1367.49391,414.720956 1368.22993,412.545977 C1368.96594,410.370998 1370.0114,408.287366 1371.36633,406.295019 C1372.72127,404.302672 1374.34382,402.434875 1376.23403,400.691571 C1378.12425,398.948267 1380.22353,397.445728 1382.53193,396.183908 C1387.58366,393.394622 1392.88623,392 1398.43978,392 C1404.06025,392 1408.35917,393.660264 1411.33668,396.980843 C1413.77891,399.670512 1415,402.941232 1415,406.793103 C1415,410.844209 1413.27709,414.862049 1409.8312,418.846743 C1406.48569,422.765026 1403.27404,424.724138 1400.19617,424.724138 C1398.4565,424.724138 1396.88413,423.993622 1395.47901,422.532567 C1394.20772,421.204336 1393.57208,420.025548 1393.57208,418.996169 C1393.57208,417.966789 1393.85644,417.302683 1394.42518,417.003831 C1400.27983,413.849282 1404.19403,410.711382 1406.16788,407.590038 C1406.9039,406.427836 1407.2719,405.265651 1407.2719,404.103448 Z M1507.10689,462.219949 C1507.70605,462.219949 1508.00563,462.585674 1508.00563,463.317136 C1508.00563,464.048597 1507.7643,464.780047 1507.28165,465.511509 C1506.79899,466.24297 1506.09166,466.941173 1505.15963,467.606138 C1502.86286,469.202054 1500.42465,470 1497.84494,470 C1495.26522,470 1493.17652,469.617651 1491.57876,468.852941 C1489.981,468.088231 1488.49977,467.065863 1487.13502,465.785806 C1485.77027,464.505748 1484.52204,463.034535 1483.3903,461.372123 C1482.25855,459.70971 1481.19339,457.980827 1480.1948,456.185422 L1477.24895,450.799233 C1473.82042,444.282576 1470.92453,440.475709 1468.56118,439.378517 C1461.804,457.498812 1454.56427,467.556256 1446.84177,469.551151 C1446.34247,469.684144 1445.78493,469.750639 1445.16913,469.750639 C1444.55333,469.750639 1443.98746,469.650896 1443.47152,469.451407 C1442.95558,469.251917 1442.51454,468.985935 1442.14838,468.653453 C1441.38279,468.021736 1441,467.348469 1441,466.633632 C1441,465.918794 1441.26629,465.361895 1441.79887,464.962916 C1447.55746,460.740388 1453.36589,449.868374 1459.22433,432.346547 C1462.61957,422.139335 1464.98288,412.929709 1466.31435,404.717391 C1466.6805,402.423262 1466.86357,400.661131 1466.86357,399.430946 C1465.49882,399.497443 1464.22563,399.846544 1463.04395,400.478261 C1461.86228,401.109978 1460.85537,401.691813 1460.02321,402.223785 C1459.19104,402.755757 1458.50868,403.021739 1457.97609,403.021739 C1457.4435,403.021739 1456.86932,402.8555 1456.25352,402.523018 C1455.63771,402.190535 1455.08017,401.774939 1454.58087,401.276215 C1453.41584,400.112526 1452.83333,399.081846 1452.83333,398.184143 C1452.83333,397.286441 1453.10794,396.538366 1453.65717,395.939898 C1454.2064,395.341429 1454.89709,394.826089 1455.72925,394.393862 C1456.56142,393.961635 1457.48511,393.587597 1458.50035,393.271739 C1459.51559,392.955881 1460.50586,392.714835 1461.47117,392.548593 C1463.30193,392.182863 1464.88302,392 1466.21449,392 C1467.54595,392 1468.94397,392.207798 1470.40858,392.623402 C1471.87319,393.039005 1473.13806,393.645776 1474.20323,394.443734 C1476.5333,396.139395 1477.69831,398.234003 1477.69831,400.727621 C1477.69831,406.014093 1476.10058,414.392526 1472.90506,425.863171 C1471.87318,429.586975 1470.70816,433.310723 1469.40999,437.034527 C1477.46535,430.817104 1482.35009,427.001925 1484.06435,425.588875 C1485.77861,424.175824 1487.66759,422.471877 1489.73136,420.476982 C1491.79513,418.482087 1493.60923,416.420727 1495.1737,414.292839 C1498.56893,409.638084 1500.26653,404.966775 1500.26653,400.278772 C1500.26653,398.549863 1499.81716,397.037091 1498.91842,395.740409 C1498.65213,395.308182 1498.51899,394.892585 1498.51899,394.493606 C1498.51899,394.094627 1498.6771,393.728902 1498.99332,393.396419 C1499.30954,393.063937 1499.70065,392.781331 1500.16667,392.548593 C1501.03212,392.182863 1502.13888,392 1503.48699,392 C1504.8351,392 1506.05004,392.290918 1507.13186,392.872762 C1508.21367,393.454606 1509.12072,394.194369 1509.85302,395.092072 C1511.28435,396.920725 1512,399.106765 1512,401.650256 C1512,404.193747 1511.48407,406.65408 1510.45218,409.03133 C1509.42029,411.40858 1508.04724,413.644491 1506.33298,415.73913 C1504.61872,417.83377 1502.64652,419.828635 1500.41632,421.723785 C1498.18611,423.618935 1495.87273,425.430938 1493.47609,427.159847 L1486.18636,432.346547 C1483.78972,434.00896 1481.55955,435.671347 1479.49578,437.33376 C1481.9257,439.22891 1484.75502,442.537061 1487.98383,447.258312 L1491.82841,452.993606 C1494.5912,457.216134 1496.82137,459.984009 1498.51899,461.297315 C1500.2166,462.61062 1501.62294,463.267263 1502.73805,463.267263 C1503.85315,463.267263 1504.76019,463.092713 1505.45921,462.743606 C1506.15823,462.3945 1506.70745,462.219949 1507.10689,462.219949 Z M1513.01672,452.086124 C1513.14796,449.199986 1513.6237,446.438291 1514.44397,443.800957 C1515.26423,441.163623 1516.36337,438.609263 1517.74142,436.137799 C1519.11946,433.666335 1520.73536,431.327603 1522.58916,429.121531 C1524.44296,426.915459 1526.45257,424.983102 1528.61807,423.324402 C1533.30999,419.774783 1538.05105,418 1542.84139,418 C1548.452,418 1552.19236,420.338733 1554.06256,425.016268 C1554.71877,426.60862 1555.03047,428.491217 1554.99766,430.664115 C1554.96485,432.837012 1554.55472,434.84401 1553.76727,436.685167 C1552.97981,438.526325 1551.88888,440.201587 1550.49443,441.711005 C1549.09998,443.220422 1547.44307,444.572243 1545.52365,445.766507 C1543.60423,446.960772 1541.51258,447.972564 1539.24865,448.801914 C1534.58955,450.460614 1529.60241,451.323126 1524.2871,451.389474 C1524.15585,451.85391 1524.07383,452.550554 1524.04102,453.479426 C1524.00821,454.408298 1524.10664,455.44497 1524.33631,456.589474 C1524.56599,457.733977 1524.95971,458.754063 1525.51749,459.649761 C1526.69867,461.640201 1528.40479,462.635407 1530.63591,462.635407 C1534.44194,462.635407 1538.14948,461.507507 1541.75865,459.251675 C1543.03826,458.488672 1544.07998,457.700802 1544.88384,456.888038 C1545.6877,456.075275 1546.38492,455.6689 1546.97551,455.6689 C1547.5661,455.6689 1548.08286,456.025515 1548.5258,456.738756 C1548.96874,457.451997 1549.19021,458.256455 1549.19021,459.152153 C1549.19021,460.910376 1548.69806,462.436357 1547.71374,463.730144 C1543.57961,467.910069 1537.42771,470 1529.25788,470 C1524.43472,470 1520.56313,468.540365 1517.64299,465.621053 C1514.36193,462.303652 1512.81985,457.792054 1513.01672,452.086124 Z M1541.57568,425 C1538.10172,425 1534.76015,427.410935 1531.55087,432.232877 C1528.83787,436.385104 1526.65427,441.30743 1525,447 C1530.52526,446.430743 1535.32256,444.220719 1539.39206,440.369863 C1543.13071,436.753407 1545,433.287688 1545,429.972603 C1545,426.657518 1543.85857,425 1541.57568,425 Z M1562.74293,467.523585 C1561.92658,466.66509 1561.26534,465.567224 1560.75921,464.229953 C1560.25307,462.892682 1560,461.340811 1560,459.574292 C1560,457.807774 1560.40001,455.438694 1561.20003,452.466981 C1562.00006,449.495268 1563.02049,446.110868 1564.26134,442.313679 L1568.37575,429.981132 C1574.22084,412.811235 1577.60049,399.537783 1578.51481,390.160377 C1578.80869,387.386779 1580.14749,386 1582.53125,386 C1584.03334,386 1585.27418,386.363204 1586.2538,387.089623 C1588.14774,388.54246 1589.06204,390.160368 1588.99673,391.943396 C1588.93143,393.726424 1588.62122,395.897393 1588.0661,398.456368 C1587.51098,401.015343 1586.7926,403.805409 1585.91093,406.826651 C1585.02927,409.847892 1584.01701,413.042436 1582.87411,416.410377 L1576.11474,436.518868 C1572.2289,447.943453 1570.286,455.323097 1570.286,458.658019 C1570.286,460.441047 1571.00438,461.332547 1572.44117,461.332547 C1573.81264,461.332547 1575.06164,461.03538 1576.18821,460.441038 C1577.31478,459.846695 1578.04132,459.549528 1578.36786,459.549528 C1579.0536,459.549528 1579.39646,459.896223 1579.39646,460.589623 C1579.39646,463.528317 1577.91072,465.988198 1574.9392,467.96934 C1572.94729,469.32312 1571.12685,470 1569.47782,470 C1567.82878,470 1566.49815,469.801889 1565.48587,469.40566 C1564.47359,469.009432 1563.55929,468.38208 1562.74293,467.523585 Z M1586,460.785441 C1586,459.756061 1586.22393,458.801409 1586.6718,457.921456 C1587.11967,457.041503 1587.67535,456.302685 1588.33886,455.704981 C1589.73223,454.409955 1591.19194,453.762452 1592.71801,453.762452 C1594.04503,453.762452 1594.70853,454.44316 1594.70853,455.804598 C1594.70853,459.257999 1595.85307,461.665383 1598.14218,463.02682 C1598.97157,463.524907 1599.83412,463.773946 1600.72986,463.773946 C1601.6256,463.773946 1602.38862,463.67433 1603.01896,463.475096 C1603.64929,463.275861 1604.22986,462.960411 1604.76066,462.528736 C1605.95498,461.565768 1606.55213,460.420185 1606.55213,459.091954 C1606.55213,457.763723 1606.25356,456.543428 1605.6564,455.431034 C1605.05924,454.318641 1604.3128,453.148154 1603.41706,451.91954 L1600.58057,447.934866 C1596.59951,442.62194 1594.609,437.72416 1594.609,433.241379 C1594.609,429.522331 1596.18482,426.151995 1599.33649,423.130268 C1602.91945,419.710072 1607.51419,418 1613.12085,418 C1618.03083,418 1621.86255,419.211993 1624.61611,421.636015 C1626.87205,423.595157 1628,425.836514 1628,428.360153 C1628,430.98341 1627.00475,433.075343 1625.01422,434.636015 C1623.22274,436.030658 1621.43129,436.54534 1619.63981,436.180077 C1618.8436,436.014048 1618.22986,435.607283 1617.79858,434.95977 C1617.3673,434.312257 1617.28436,433.57344 1617.54976,432.743295 C1617.81517,431.91315 1617.94787,431.049813 1617.94787,430.153257 C1617.94787,429.2567 1617.78199,428.426568 1617.45024,427.662835 C1617.11848,426.899102 1616.67062,426.251599 1616.10664,425.720307 C1614.94549,424.624516 1613.72631,424.076628 1612.44905,424.076628 C1611.17179,424.076628 1610.11849,424.217751 1609.2891,424.5 C1608.45971,424.782249 1607.72986,425.189014 1607.09953,425.720307 C1605.80568,426.915715 1605.15877,428.385049 1605.15877,430.128352 C1605.15877,431.871656 1605.45734,433.374195 1606.0545,434.636015 C1606.65166,435.897835 1607.38981,437.159636 1608.26896,438.421456 C1609.14811,439.683276 1610.10189,440.961679 1611.13033,442.256705 C1612.15877,443.551731 1613.10426,444.913147 1613.96682,446.340996 C1616.05688,449.69478 1617.1019,452.64175 1617.1019,455.181992 C1617.1019,457.722235 1616.5711,459.847373 1615.50948,461.557471 C1614.44786,463.267569 1613.0711,464.736903 1611.37915,465.965517 C1607.76302,468.655186 1603.71566,470 1599.23697,470 C1594.95732,470 1591.57347,468.970636 1589.08531,466.911877 C1587.02843,465.185177 1586,463.143051 1586,460.785441 Z M1658.60586,407.16179 C1657.88925,407.935573 1657.07492,408.566365 1656.16287,409.054184 C1655.25081,409.542004 1654.28991,409.844784 1653.28013,409.962534 C1652.27035,410.080284 1651.31759,409.920483 1650.42182,409.483127 C1649.52605,409.045772 1648.75245,408.42339 1648.10098,407.615965 C1646.70032,405.933828 1646,404.234895 1646,402.519115 C1646,400.803335 1646.26873,399.51652 1646.80619,398.65863 C1647.34365,397.80074 1648.01954,397.102663 1648.83388,396.56438 C1650.3974,395.521455 1651.87133,395 1653.2557,395 C1654.64007,395 1655.71498,395.100927 1656.48046,395.302783 C1657.24593,395.50464 1657.95439,395.841062 1658.60586,396.31206 C1660.20196,397.422271 1661,398.776371 1661,400.374401 C1661,401.972431 1660.78013,403.301299 1660.34039,404.361046 C1659.90065,405.420792 1659.32248,406.354364 1658.60586,407.16179 Z M1648.43629,460.197129 C1649.29734,460.197129 1649.72786,460.761079 1649.72786,461.888995 C1649.72786,463.381826 1649.04896,464.924394 1647.69114,466.516746 C1645.70409,468.838927 1643.03817,470 1639.6933,470 C1635.85167,470 1633.21887,468.440845 1631.79482,465.322488 C1631.26494,464.227746 1631,462.900805 1631,461.341627 C1631,459.782448 1631.27322,458.049132 1631.81965,456.141627 C1632.36609,454.234121 1633.04499,452.227124 1633.85637,450.120574 C1634.66775,448.014025 1635.55363,445.882626 1636.51404,443.726316 L1639.14687,437.456459 C1641.06768,432.778924 1642.02808,429.693787 1642.02808,428.200957 C1642.02808,426.708127 1641.87077,425.721215 1641.55616,425.240191 C1641.24154,424.759168 1640.90209,424.385966 1640.5378,424.120574 L1639.54428,423.423923 C1639.2131,423.191705 1639.04752,422.78533 1639.04752,422.204785 C1639.04752,421.62424 1639.27106,421.068583 1639.71814,420.537799 C1640.16523,420.007015 1640.75306,419.542586 1641.48164,419.144498 C1642.97193,418.381495 1644.71057,418 1646.69762,418 C1651.5659,418 1654,419.27718 1654,421.831579 C1654,424.81724 1653.22175,428.225818 1651.66523,432.057416 C1650.1087,435.889014 1648.78402,438.982444 1647.69114,441.337799 L1644.71058,448.204785 C1642.52483,453.247234 1641.43197,456.879734 1641.43197,459.102392 C1641.43197,460.562049 1642.16054,461.291866 1643.61771,461.291866 C1645.04176,461.291866 1646.11807,461.109412 1646.84665,460.744498 C1647.57524,460.379584 1648.10511,460.197129 1648.43629,460.197129 Z M1661.01672,452.086124 C1661.14796,449.199986 1661.6237,446.438291 1662.44397,443.800957 C1663.26423,441.163623 1664.36337,438.609263 1665.74142,436.137799 C1667.11946,433.666335 1668.73536,431.327603 1670.58916,429.121531 C1672.44296,426.915459 1674.45257,424.983102 1676.61807,423.324402 C1681.30999,419.774783 1686.05105,418 1690.84139,418 C1696.452,418 1700.19236,420.338733 1702.06256,425.016268 C1702.71877,426.60862 1703.03047,428.491217 1702.99766,430.664115 C1702.96485,432.837012 1702.55472,434.84401 1701.76727,436.685167 C1700.97981,438.526325 1699.88888,440.201587 1698.49443,441.711005 C1697.09998,443.220422 1695.44307,444.572243 1693.52365,445.766507 C1691.60423,446.960772 1689.51258,447.972564 1687.24865,448.801914 C1682.58955,450.460614 1677.60241,451.323126 1672.2871,451.389474 C1672.15585,451.85391 1672.07383,452.550554 1672.04102,453.479426 C1672.00821,454.408298 1672.10664,455.44497 1672.33631,456.589474 C1672.56599,457.733977 1672.95971,458.754063 1673.51749,459.649761 C1674.69867,461.640201 1676.40479,462.635407 1678.63591,462.635407 C1682.44194,462.635407 1686.14948,461.507507 1689.75865,459.251675 C1691.03826,458.488672 1692.07998,457.700802 1692.88384,456.888038 C1693.6877,456.075275 1694.38492,455.6689 1694.97551,455.6689 C1695.5661,455.6689 1696.08286,456.025515 1696.5258,456.738756 C1696.96874,457.451997 1697.19021,458.256455 1697.19021,459.152153 C1697.19021,460.910376 1696.69806,462.436357 1695.71374,463.730144 C1691.57961,467.910069 1685.42771,470 1677.25788,470 C1672.43472,470 1668.56313,468.540365 1665.64299,465.621053 C1662.36193,462.303652 1660.81985,457.792054 1661.01672,452.086124 Z M1690.57568,425 C1687.10172,425 1683.76015,427.410935 1680.55087,432.232877 C1677.83787,436.385104 1675.65427,441.30743 1674,447 C1679.52526,446.430743 1684.32256,444.220719 1688.39206,440.369863 C1692.13071,436.753407 1694,433.287688 1694,429.972603 C1694,426.657518 1692.85857,425 1690.57568,425 Z" id="Joshua-&amp;-Kelsie"></path>
        </g>
    </g>
</svg>