<svg width="500" height="175" viewBox="0 0 500 175" xmlns="http://www.w3.org/2000/svg">
    <title>
        Bible First Logo
    </title>
    <g fill="none" fill-rule="evenodd">
        <path d="M285.515 143.86l-.512-.724c-4.117-.922-8.407-1.402-12.087-1.402-5.603 0-11.023.885-16.11 2.63-11.365 3.898-21.036 10.837-27.698 16.597l-4.607-49.692a35.474 35.474 0 0 1 4.298-3.747c4.826-3.575 10.133-5.738 15.773-6.427a17.755 17.755 0 0 1 2.144-.129c4.759 0 8.87 1.824 10.53 2.675l-3.858-5.488-2.09-2.975a26.689 26.689 0 0 0-4.582-.407c-.944 0-1.912.054-2.896.175-16.571 2.025-25.735 14.235-25.735 14.235l6.06 65.358s14.675-17.456 34.672-24.316c4.82-1.653 9.63-2.294 14.1-2.294 5.367 0 10.244.924 14.06 2.127.35-3.14-.206-4.54-1.462-6.196M306.311 84.623h-25.744s-8.934-.032-14.955 6.446l.545.753 3.158 4.447c1.289-1.744 3.016-3.255 5.218-4.226 3.043-1.342 5.875-1.618 6.074-1.618h23.462l41.191 33.914c-7.025.006-14.422.093-18.478.093-14.827 0-23.96 5.766-29.367 11.427l.21.315c.37.493 1.802 2.53 2.827 5.63 4.596-5.618 12.6-11.1 26.337-11.1 9.292 0 35.795.007 35.795.007l-56.273-46.088z" fill="#F9A825"/>
        <path d="M300.818 161.639c-2.598-1.73-3.424-4.906-2.527-9.707 1.443-7.712-2.641-13.27-3.01-13.752l-31.734-44.775c-1.07 1.96-3.809 3.163-7.952 2.45l32.518 46.252.026.037c2.157 2.846 2.621 5.385 1.839 10.057-1.478 8.83 1.754 13.043 4.725 15.023l2.394 1.595 1.074-4.313 8.541 1.06-5.894-3.927z" fill="#D32F2F"/>
        <g fill="#0D47A1">
            <path d="M6.601 94.101c2.809.562 6.742.702 11.657.702 14.466 0 28.09-5.196 28.09-21.348 0-14.888-12.78-21.348-27.809-21.348H6.601V94.1zm0-47.472h13.905c13.623 0 22.19-8.005 22.19-18.54 0-13.342-9.972-18.117-24.016-18.117-6.32 0-9.972.421-12.079.983V46.63zM0 6.32c5.197-1.264 11.938-1.966 18.96-1.966 11.799 0 19.523 2.528 24.86 7.725 3.792 3.932 5.758 8.988 5.758 15.59 0 9.69-6.881 17.837-16.291 21.207v.281c7.865 1.826 19.943 8.708 19.943 24.158 0 7.724-2.668 13.623-7.022 18.117-6.18 6.461-16.433 8.989-29.775 8.989C9.129 100.42 3.65 100 0 99.579V6.32zM67.274 99.72h6.601V32.303h-6.6v67.415zm8.708-86.658c0 3.09-2.107 5.758-5.618 5.758-3.09 0-5.197-2.668-5.197-5.758s2.388-5.899 5.478-5.899c3.23 0 5.337 2.668 5.337 5.899zM99.718 73.736c0 1.545.28 3.23.562 4.916 2.95 10.252 11.657 16.994 22.19 16.994 15.45 0 24.299-12.64 24.299-30.197 0-15.449-8.427-29.213-23.736-29.213-9.832 0-19.242 6.882-22.472 18.118-.421 1.685-.843 3.511-.843 5.899v13.483zM93.117 0h6.601v44.803h.28c4.495-8.708 12.782-14.045 24.72-14.045 16.995 0 28.792 14.186 28.792 34.551 0 24.017-15.309 35.955-30.056 35.955-10.814 0-18.82-4.354-24.157-13.764h-.281l-.421 12.219h-6.04c.281-4.775.562-10.674.562-15.73V0zM167.132 99.72h6.602V0h-6.602zM342.409 99.72h6.6V32.303h-6.6v67.415zm8.708-86.658c0 3.09-2.107 5.758-5.618 5.758-3.09 0-5.197-2.668-5.197-5.758s2.388-5.899 5.478-5.899c3.23 0 5.337 2.668 5.337 5.899zM368.252 52.528c0-6.741-.281-13.764-.562-20.224h6.18l.28 13.623h.282c2.949-8.427 9.971-15.169 19.24-15.169.844 0 1.827.14 2.67.282v6.46c-.983-.281-1.967-.281-3.231-.281-9.27 0-15.87 8.006-17.696 18.82-.281 1.967-.562 4.214-.562 6.461v37.219h-6.601V52.528zM403.364 90.87c3.652 2.248 9.13 4.636 15.169 4.636 10.673 0 15.73-5.759 15.73-12.781 0-7.444-4.495-11.377-14.186-15.31-11.095-4.213-17.134-10.252-17.134-18.398 0-9.691 7.584-18.259 20.786-18.259 6.18 0 11.377 1.826 14.888 4.214l-2.668 5.478c-2.248-1.686-6.602-4.073-13.343-4.073-8.568 0-13.062 5.477-13.062 11.657 0 7.022 4.775 10.112 13.904 13.904 10.955 4.214 17.416 9.691 17.416 19.944 0 11.517-8.988 19.382-22.753 19.382-6.6 0-12.64-1.966-17.134-4.775l2.387-5.618zM464.317 17.416v14.887h19.242v5.338h-19.242v43.82c0 8.567 2.67 14.045 9.832 14.045 3.511 0 6.039-.562 7.725-1.124l.842 5.197c-2.247.983-5.337 1.685-9.41 1.685-4.916 0-8.989-1.685-11.517-4.916-3.09-3.51-4.213-9.129-4.213-16.011V37.64H446.2v-5.338h11.377V19.944l6.741-2.528zM292.128 79.278V54.133h36.75V48.33h-36.75V10.612h40.135V4.81h-46.905v74.468zM217.272 36.2c16.292 0 20.224 14.548 20.084 23.735H194.8c1.124-10.154 7.584-23.736 22.472-23.736m9.98 58.754c-2.07.26-4.436.385-7.171.385-13.905 0-25.702-8.323-25.702-30.084h49.719c.28-.967.28-2.22.28-4.045 0-9.691-4.213-30.464-26.263-30.464-17.416 0-30.338 14.052-30.338 36.524 0 19.458 11.663 33.495 30.455 33.978a48.811 48.811 0 0 1 9.02-6.294"/>
        </g>
        <path d="M491.043 2.158c-.928.934-1.393 2.062-1.393 3.384 0 1.333.462 2.468 1.386 3.407.929.939 2.057 1.408 3.384 1.408 1.328 0 2.456-.47 3.384-1.408.93-.939 1.393-2.074 1.393-3.407 0-1.322-.464-2.45-1.393-3.384-.933-.94-2.061-1.408-3.384-1.408-1.317 0-2.443.469-3.377 1.408zm7.314 7.329c-1.085 1.09-2.397 1.635-3.937 1.635s-2.85-.545-3.93-1.635c-1.074-1.086-1.612-2.4-1.612-3.945 0-1.53.543-2.837 1.628-3.922C491.586.54 492.89 0 494.42 0c1.54 0 2.852.54 3.937 1.62s1.628 2.388 1.628 3.922c0 1.54-.543 2.854-1.628 3.945zm-2.888-6.05c-.27-.151-.703-.227-1.299-.227h-.916v2.21h.97c.454 0 .794-.045 1.021-.135.42-.167.629-.485.629-.954 0-.445-.135-.742-.405-.894zm-1.155-.961c.757 0 1.312.073 1.666.22.63.262.946.777.946 1.544 0 .545-.2.946-.598 1.204-.212.136-.507.234-.886.295.48.076.83.275 1.053.598.222.323.333.638.333.946v.447c0 .141.005.293.015.454.01.162.028.268.053.318l.038.076h-1.007l-.015-.06a1.478 1.478 0 0 1-.016-.069l-.022-.197v-.484c0-.707-.192-1.174-.576-1.4-.227-.132-.625-.198-1.196-.198h-.848v2.408h-1.075V2.476h2.135z" fill="#0D47A1"/>
    </g>
</svg>
