<svg xmlns="http://www.w3.org/2000/svg" xmlns:xlink="http://www.w3.org/1999/xlink" width="1000" height="199.024" viewBox="0 0 1000 199.024">
    <path fill="#1A1A1A" d="M668.784 1926.901c0 74.969-49.058 121.912-113.574 121.912-67.874 0-111.894-51.498-111.894-115.957 0-56.756 36.292-122.266 116.599-122.266 61.491 0 108.869 46.948 108.869 116.311zm-162.97-5.957c0 63.41 22.851 109.652 55.78 109.652 28.896 0 44.691-29.078 44.691-92.486 0-70.414-24.194-109.301-53.094-109.301-25.87 0-47.377 30.828-47.377 92.135zM1466.413 1959.581c0 53.971-34.345 87.764-79.506 87.764-47.512 0-78.322-37.072-78.322-83.475 0-40.855 25.398-88.016 81.616-88.016 43.042 0 76.212 33.797 76.212 83.727zm-114.081-4.284c0 45.641 15.993 78.934 39.046 78.934 20.227 0 31.28-20.934 31.28-66.58 0-50.688-16.936-78.684-37.159-78.684-18.113 0-33.167 22.194-33.167 66.33z"/>
    <path fill="#1A1A1A" d="M1519.458 2005.219c0 27.238 1.885 29.002 18.11 30.518v9.832h-74.325v-9.832c16.701-1.516 18.58-3.279 18.58-30.518v-83.223c0-27.24-1.879-29.004-17.641-30.518v-9.836h73.386c18.345 0 30.579 2.27 39.754 8.576 9.405 6.305 16.461 17.652 16.461 32.533 0 22.191-12.933 35.309-30.344 42.621 3.298 7.061 11.999 24.461 18.819 36.062 7.996 13.363 13.174 21.941 16.937 26.984 4.232 5.295 7.995 8.574 13.878 10.592l-.471 8.826-10.113-.25c-33.402-.76-41.164-8.324-50.575-22.949-7.05-10.844-13.637-26.48-19.518-40.604-2.119-5.299-5.413-9.08-9.88-9.08h-3.059v30.266zm0-42.117h3.293c7.526 0 13.174-.754 17.641-4.287 9.645-8.07 13.173-19.922 13.173-32.277 0-24.215-14.347-32.283-23.522-32.283-9.879 0-10.584.756-10.584 10.842v58.005zM2148.52 1959.581c0 53.971-34.342 87.764-79.503 87.764-47.515 0-78.323-37.072-78.323-83.475 0-40.855 25.402-88.016 81.616-88.016 43.042 0 76.21 33.797 76.21 83.727zm-114.08-4.284c0 45.641 15.996 78.934 39.044 78.934 20.229 0 31.283-20.934 31.283-66.58 0-50.688-16.936-78.684-37.16-78.684-18.109 0-33.167 22.194-33.167 66.33zM740.595 1916.032h22.848c28.898 0 29.906-2.162 33.266-27.74h14.784v79.979h-14.784c-3.359-28.461-4.367-30.625-33.266-30.625h-22.848v50.08c0 38.91 2.687 41.43 30.242 43.592v14.051h-112.23v-14.051c22.177-2.162 24.863-4.682 24.863-43.592v-118.889c0-38.91-2.687-41.43-24.863-43.594v-14.051h162.295c.336 6.125 2.016 32.424 3.698 60.166l-14.787 1.08c-3.358-18.375-7.056-28.461-12.433-34.227-5.377-6.121-16.461-8.285-34.271-8.285h-15.794c-6.049 0-6.72 0-6.72 13.33v72.776zM1227.651 2005.014c0 27.236 1.882 29.002 21.401 30.518v9.836h-78.088v-9.836c15.993-1.516 17.875-3.281 17.875-30.518v-83.225c0-27.236-1.882-29-16.698-30.512v-9.836h68.684c22.107 0 35.043 3.527 44.45 10.844 10.114 7.816 16.701 19.418 16.701 36.314 0 33.793-23.52 51.197-49.866 53.719-2.586.25-4.937.25-6.818.25l-17.641-4.285v26.731zm0-39.342c2.824 1.012 6.347 2.02 10.112 2.02 7.528 0 22.108-6.055 22.108-39.342 0-26.229-13.405-34.299-23.991-34.299-7.763 0-8.229 1.262-8.229 9.078v62.543zM1698.616 2005.127c0 27.16 1.884 28.92 21.643 30.432v9.809h-82.325v-9.809c18.814-1.512 20.697-3.271 20.697-30.432v-110.148h-4.002c-15.756 0-22.103 3.018-25.87 7.547-2.818 3.771-5.648 10.311-8.701 24.393h-9.879c.939-21.121 2.353-38.473 2.823-51.299h7.291c3.528 5.781 5.882 6.285 12.233 6.285h93.844c6.117 0 7.291-1.508 11.061-6.285h7.284c.235 10.561 1.415 31.936 2.59 50.545l-10.35.754c-3.528-15.088-6.116-21.629-9.646-25.904-3.997-4.525-11.758-6.035-23.047-6.035h-5.646v110.147zM1764.055 2012.946c0-18.736 12.769-32.426 29.235-32.426 16.799 0 29.568 13.689 29.568 32.426 0 19.094-12.77 32.422-29.568 32.422-16.467 0-29.235-13.328-29.235-32.422zM1967.297 1927.069c-7.525-30.449-22.107-38.439-38.809-38.439-28.225 0-45.631 32.449-45.631 68.389 0 45.92 21.169 75.371 45.396 75.371 20.465 0 32.223-13.979 44.216-41.43l10.35 1.746c-3.053 14.725-8.7 36.189-12.697 45.674-5.882 1.746-27.051 6.988-42.812 6.988-63.266 0-88.202-42.43-88.202-82.611 0-51.662 38.104-87.102 92.44-87.102 19.518 0 35.28 4.988 41.867 6.488 1.884 13.727 2.823 24.707 4.232 43.428l-10.35 1.498zM2342.171 1881.442v9.836c-17.881 1.764-18.82 2.773-18.115 29.254l2.354 84.482c.704 27.996 1.175 28.75 18.11 30.518v9.836h-73.621v-9.836c17.642-1.768 18.346-2.521 18.111-30.518l-.705-88.773h-.939l-45.396 126.35h-12.697l-43.048-117.52h-.465l-1.648 55.986c-.71 21.688-.476 33.793.471 41.611.938 9.332 6.11 11.602 21.402 12.863v9.836h-58.094v-9.836c11.289-1.008 15.757-3.531 17.166-12.863 1.18-7.818 2.588-21.186 3.763-44.133l2.589-50.945c1.644-31.775-.235-34.549-18.814-36.312v-9.836h55.27l41.163 99.867 35.985-99.867h57.158zM1044.05 2046.45h116.12c2.114-7 7.057-32.934 8.227-45.289l-10.346-1.966c-3.528 12.105-7.528 21.335-11.526 25.874-5.174 6.057-15.523 7.518-24.932 7.518-7.293 0-13.29-.275-17.054-2.295-4.232-2.271-5.293-8.6-5.293-21.713v-40.129h12.939c20.227 0 20.931 2 23.282 24h9.778v-60h-9.778c-2.352 19-3.056 21-23.282 21h-12.939v-49.781c0-8.83 1.65-8.219 10.589-8.219h3.994c12.469 0 20.23 1.209 23.992 5.498 3.761 4.033 6.352 10.942 8.703 23.302l10.35-.474c-1.177-18.912-2.352-36.326-2.586-41.326h-112.042v9.113c16 1.512 17 3.275 17 30.512v83.225c0 25.975-1.127 28.783-16.996 30.301-7.443-2.92-12.192-7.463-17.819-14.504-5.377-7.203-12.622-19.453-24.046-38.547-9.746-16.572-22.104-41.432-26.803-51.518 24.863-10.449 43.377-29.184 43.377-60.889 0-21.256-10.056-36.951-23.499-45.957-13.105-9.006-30.558-11.736-56.768-11.736H831.246v13.021c22 2.162 25 4.686 25 43.596v118.885c0 38.912-3 41.434-26 43.594v14.904h106v-14.904c-23-2.16-26-4.682-26-43.594v-42.502h4.942c6.382 0 11.09 5.041 14.109 12.605 8.402 20.174 17.811 42.871 27.889 58.365 9.783 15.206 18.334 26.029 40.646 30.029h46.218zm-103.326-124.455c-6.382 5.043-14.445 6.455-25.202 6.455h-5.275v-83.523c0-14.412 1.291-15.494 15.406-15.494 13.104 0 33.743 11.695 33.743 46.283 0 17.654-4.893 34.751-18.672 46.279z"/>
    <g fill="#1A1A1A">
        <path d="M1697.288 1816.584c0-2.324.416-3.908 1.256-4.742.831-.834 2.403-1.252 4.704-1.252h17.558c2.299 0 3.855.418 4.68 1.252.82.834 1.229 2.418 1.229 4.742v13.361c0 2.326-.409 3.906-1.229 4.74-.824.836-2.381 1.252-4.68 1.252h-17.558c-2.301 0-3.873-.416-4.704-1.252-.84-.834-1.256-2.414-1.256-4.74v-13.361zm4.223 15.821h20.977v-18.428h-20.977v18.428zM1745.977 1835.938l-13.86-25.348h4.571l11.201 21.125 10.709-21.125h4.179l-13.271 25.348h-3.529zM1768.517 1835.938v-25.348h24.418v3.387h-20.19v7.078h12.332v3.34h-12.332v8.055h20.387v3.488h-24.615zM1800.75 1835.938v-25.348h20.398c1.857 0 3.217.385 4.062 1.156.854.77 1.279 2.023 1.279 3.758v5.648c0 1.738-.426 2.988-1.279 3.758-.846.77-2.205 1.152-4.062 1.152h-3.725l11.584 9.875h-6.28l-10.307-9.875h-7.444v9.875h-4.226zm18.761-22.055h-14.534v8.893h14.534c1.021 0 1.73-.18 2.141-.541.415-.361.617-1.049.617-2.064v-3.688c0-.979-.202-1.66-.617-2.037-.411-.373-1.121-.563-2.141-.563zM1857.348 1813.977h-17.936v7.127h15.969c2.294 0 3.851.424 4.664 1.275.814.855 1.229 2.426 1.229 4.717v2.85c0 2.326-.415 3.906-1.229 4.74-.813.836-2.37 1.252-4.664 1.252h-14.789c-2.294 0-3.856-.416-4.697-1.252-.83-.834-1.251-2.414-1.251-4.74v-.688l3.933-.934v4.08h18.864v-7.617h-15.915c-2.262 0-3.807-.418-4.647-1.254-.831-.834-1.251-2.412-1.251-4.74v-2.209c0-2.359.42-3.945 1.251-4.766.841-.818 2.386-1.229 4.647-1.229h13.512c2.156 0 3.687.389 4.588 1.162.9.775 1.349 2.219 1.349 4.338v.547l-3.626 1.025v-3.684zM1871.64 1835.938v-25.348h24.413v3.387h-20.191v7.078h12.332v3.34h-12.332v8.055h20.387v3.488h-24.609zM1898.903 1835.938l13.851-25.348h4.521l14.102 25.348h-4.669l-3.245-6.238h-17.143l-3.244 6.238h-4.173zm9.187-9.482h13.653l-6.821-12.967-6.832 12.967zM1958.733 1813.977h-17.93v7.127h15.97c2.287 0 3.845.424 4.669 1.275.813.855 1.218 2.426 1.218 4.717v2.85c0 2.326-.404 3.906-1.218 4.74-.824.836-2.382 1.252-4.669 1.252h-14.784c-2.3 0-3.862-.416-4.691-1.252-.836-.834-1.257-2.414-1.257-4.74v-.688l3.927-.934v4.08h18.864v-7.617h-15.909c-2.267 0-3.812-.418-4.643-1.254-.841-.834-1.262-2.412-1.262-4.74v-2.209c0-2.359.421-3.945 1.262-4.766.83-.818 2.376-1.229 4.643-1.229h13.505c2.164 0 3.693.389 4.589 1.162.906.775 1.354 2.219 1.354 4.338v.547l-3.638 1.025v-3.684zM1988.945 1835.938v-25.348h24.124v3.439h-19.896v8.303h11.349v3.387h-11.349v10.219h-4.228zM2017.789 1835.938v-25.348h4.221v25.348h-4.221zM2032.72 1835.938v-25.348h24.413v3.387h-20.186v7.078h12.326v3.34h-12.326v8.055h20.382v3.488h-24.609zM2064.947 1835.938v-25.348h4.223v21.814h19.213v3.533h-23.436zM2108.52 1810.59c4.456 0 7.695.656 9.732 1.967 1.638 1.045 2.916 2.504 3.855 4.369.929 1.867 1.398 3.932 1.398 6.188 0 4.951-1.753 8.568-5.254 10.861-1.999 1.311-5.243 1.963-9.732 1.963h-13.948v-25.348h13.949zm-.585 3.387h-9.137v18.428h9.137c3.927 0 6.745-.658 8.449-1.973 1.868-1.414 2.802-3.857 2.802-7.34 0-3.348-.934-5.729-2.802-7.145-1.737-1.31-4.555-1.97-8.449-1.97zM2147.722 1835.938v-25.348h20.398c1.868 0 3.217.385 4.069 1.156.852.77 1.277 2.023 1.277 3.758v5.648c0 1.738-.426 2.988-1.277 3.758-.853.77-2.201 1.152-4.069 1.152h-3.725l11.595 9.875h-6.293l-10.299-9.875h-7.449v9.875h-4.227zm18.771-22.055h-14.544v8.893h14.544c1.016 0 1.72-.18 2.134-.541.404-.361.613-1.049.613-2.064v-3.688c0-.979-.209-1.66-.613-2.037-.414-.373-1.118-.563-2.134-.563zM2182.702 1835.938v-25.348h24.418v3.387h-20.196v7.078h12.338v3.34h-12.338v8.055h20.394v3.488h-24.616zM2214.931 1835.938v-25.348h20.393c1.868 0 3.217.385 4.073 1.156.848.77 1.273 2.023 1.273 3.758v5.648c0 1.738-.426 2.988-1.273 3.758-.851.77-2.205 1.152-4.066 1.152h-16.173v9.875h-4.227zm18.759-22.055h-14.533v8.793h14.533c1.021 0 1.731-.188 2.146-.562.404-.377.606-1.066.606-2.078v-3.514c0-1.01-.208-1.703-.634-2.076-.424-.375-1.134-.563-2.118-.563zM2248.283 1816.584c0-2.324.422-3.908 1.256-4.742.836-.834 2.403-1.252 4.697-1.252h17.569c2.3 0 3.856.418 4.675 1.252s1.234 2.418 1.234 4.742v13.361c0 2.326-.416 3.906-1.234 4.74-.818.836-2.375 1.252-4.675 1.252h-17.569c-2.294 0-3.861-.416-4.697-1.252-.834-.834-1.256-2.414-1.256-4.74v-13.361zm4.228 15.821h20.978v-18.428h-20.978v18.428zM2288.082 1835.938v-25.348h20.392c1.862 0 3.223.385 4.069 1.156.857.77 1.278 2.023 1.278 3.758v5.648c0 1.738-.421 2.988-1.278 3.758-.847.77-2.207 1.152-4.069 1.152h-3.726l11.596 9.875h-6.291l-10.301-9.875h-7.443v9.875h-4.227zm18.765-22.055h-14.538v8.893h14.538c1.01 0 1.726-.18 2.136-.541.409-.361.615-1.049.615-2.064v-3.688c0-.979-.206-1.66-.615-2.037-.411-.373-1.127-.563-2.136-.563zM2332.881 1814.03v21.908h-4.227v-21.908h-11.595v-3.439h27.46v3.439h-11.638z"/>
    </g>
    <g>
        <path fill="#009246" d="M-2640.754 1377.457h133.332v250h-133.332z"/>
        <path fill="#FFF" d="M-2507.422 1377.457h133.334v250h-133.334z"/>
        <path fill="#E92E2F" d="M-2374.088 1377.457h133.335v250h-133.335zM-3040.753 1377.457h400v250h-400z"/>
        <path fill="#FFF" d="M-3040.753 1419.127h400v166.658h-400z"/>
        <path fill="#031389" d="M-3040.753 1460.785h400v83.328h-400z"/>
        <path fill="none" d="M-3040.753 1377.457h400v250h-400z"/>
        <path fill="#488A30" d="M-1003.495 1627.457h325.471l-162.744-101.711zM-678.024 1377.457h-325.471l162.727 101.71z"/>
        <path d="M-1040.754 1604.159l162.73-101.709-162.73-101.696zM-640.754 1604.159v-203.405l-162.727 101.696z"/>
        <path fill="#F1DA28" d="M-1040.754 1627.457h37.259l162.727-101.711 162.744 101.711h37.27l-200.014-125.007zM-678.024 1377.457l-162.744 101.71-162.727-101.71h-37.259l200 124.993 200-124.993z"/>
        <path fill="#F1DA28" d="M-640.754 1377.457l-200 124.993 200 125.007v-23.298l-162.727-101.709 162.727-101.696zM-1040.754 1400.754l162.73 101.696-162.73 101.709v23.298l199.986-125.007-199.986-124.993z"/>
        <path fill="none" d="M-1040.754 1377.457h400v250h-400z"/>
        <g>
            <path fill="#0071BB" d="M-1440.754 1377.457h400v250h-400z"/>
            <path fill="#F3D02F" d="M-1324.092 1377.457h46.671v250h-46.671z"/>
            <path fill="#F3D02F" d="M-1440.754 1477.462h400v49.988h-400z"/>
            <path fill="none" d="M-1440.754 1377.457h400v250h-400z"/>
        </g>
        <g fill-rule="evenodd" clip-rule="evenodd">
            <path fill="#0071BB" d="M-3440.754 1377.457h400v125.01h-400v-125.01"/>
            <path fill="#FCE82B" d="M-3440.754 1502.467h400v124.99h-400v-124.99"/>
        </g>
        <g>
            <path fill="#FFF" d="M-1840.754 1377.457h400v250h-400z"/>
            <path d="M-1576.04 1418.669l14.828 23.837-8.086 5.784-14.831-23.839zM-1558.513 1446.839l14.831 23.839-8.089 5.767-14.83-23.823zM-1563.903 1410.002l32.352 52.009-8.088 5.782-32.351-52.008zM-1551.771 1401.337l14.831 23.838-8.087 5.768-14.832-23.824zM-1534.241 1429.508l14.83 23.838-8.09 5.768-14.83-23.824zM-1729.744 1528.454l32.358 52.008-8.088 5.783-32.358-52.009zM-1741.875 1537.134l14.828 23.824-8.087 5.782-14.829-23.838zM-1724.349 1565.292l14.832 23.836-8.087 5.783-14.833-23.839zM-1754.015 1545.786l32.359 52.008-8.088 5.783-32.352-52.01zM-1737.832 1470.678l32.358-52.009 8.088 5.782-32.358 51.994zM-1749.963 1462.011l32.359-52.009 8.087 5.783-32.358 52.008zM-1762.096 1453.346l32.352-52.009 8.088 5.782-32.359 51.995zM-1584.129 1580.462l14.831-23.837 8.086 5.782-14.828 23.838zM-1566.601 1552.292l14.83-23.838 8.089 5.782-14.831 23.839zM-1571.99 1589.128l14.83-23.836 8.088 5.78-14.831 23.839zM-1554.469 1560.958l14.83-23.824 8.088 5.768-14.83 23.838zM-1559.859 1597.794l14.832-23.824 8.087 5.769-14.831 23.838zM-1542.331 1569.624l14.83-23.838 8.09 5.781-14.83 23.838z"/>
            <path fill="#B50037" d="M-1689.291 1467.793c-.212.327-.424.667-.616 1.009.205-.342.404-.681.616-1.009"/>
            <path fill="#E92E2F" d="M-1608.392 1450.448c-26.811-19.149-63.033-11.379-80.899 17.346-8.943 14.348-5.316 33.755 8.088 43.329s31.51 5.697 40.453-8.666c8.929-14.362 27.041-18.24 40.439-8.665 13.404 9.574 17.031 28.966 8.088 43.343 17.872-28.726 10.634-67.538-16.169-86.687"/>
            <path fill="#031389" d="M-1689.291 1467.793c-8.943 14.348-5.316 33.755 8.088 43.329s31.51 5.697 40.453-8.666c8.929-14.362 27.041-18.24 40.439-8.665 13.404 9.574 17.031 28.966 8.088 43.343-17.86 28.71-54.09 36.481-80.894 17.33-26.808-19.148-34.047-57.96-16.174-86.671"/>
            <path fill="none" d="M-1840.754 1377.457h400v250h-400z"/>
            <path fill="none" d="M-1840.754 1377.457h400v250h-400z"/>
        </g>
        <g>
            <path fill="#FFF" d="M-2240.754 1377.457h400v250h-400z"/>
            <path fill="#E92E2F" d="M-1972.921 1467.845l132.167-79.264v-11.124h-9.128l-150.702 90.388zM-1979.172 1542.096l138.418 82.974v-16.592l-110.761-66.382zM-2240.754 1396.506l118.391 71.339h27.671l-146.062-87.958zM-2100.95 1542.096l-139.804 83.911v1.45h25.237l142.223-85.361z"/>
            <path fill="#031389" d="M-1868.119 1377.457h-140.049v84.053zM-2070.019 1377.457h-139.492l139.492 84.053zM-1840.754 1467.845v-57.346l-95.003 57.346zM-1840.754 1598.818v-56.722h-95.003zM-2201.595 1627.457h131.576v-79.01zM-2008.168 1627.457h131.98l-131.98-79.01zM-2240.754 1542.096v59.279l98.317-59.279zM-2240.754 1467.845h98.317l-98.317-59.379z"/>
            <path fill="#E92E2F" d="M-2057.655 1377.457v105.247h-183.099v44.548h183.099v100.205h37.117v-100.205h179.784v-44.548h-179.784v-105.247z"/>
            <path fill="none" d="M-2240.754 1377.457h400v250h-400z"/>
        </g>
        <g>
            <defs>
                <path id="a" d="M-640.754 1377.45h400v250h-400z"/>
            </defs>
            <clipPath id="b">
                <use xlink:href="#a" overflow="visible"/>
            </clipPath>
            <path clip-path="url(#b)" fill="#2A4B9E" d="M-640.754 1377.45h400v41.666h-400zM-640.754 1585.783h400v41.667h-400z"/>
            <path clip-path="url(#b)" fill="#E92E2F" d="M-640.754 1426.063h400v152.773h-400z"/>
            <path clip-path="url(#b)" fill="#FFF" d="M-640.754 1419.116h400v6.947h-400zM-640.754 1578.836h400v6.946h-400z"/>
            <g clip-path="url(#b)">
                <defs>
                    <path id="c" d="M-640.754 1377.45h400v250h-400z"/>
                </defs>
                <clipPath id="d">
                    <use xlink:href="#c" overflow="visible"/>
                </clipPath>
                <path clip-path="url(#d)" fill="#FFF" d="M-485.193 1446.889c28.632 0 51.847 24.875 51.847 55.561s-23.215 55.561-51.847 55.561c-28.638 0-51.854-24.875-51.854-55.561s23.216-55.561 51.854-55.561"/>
                <path clip-path="url(#d)" fill="#E92E2F" d="M-485.193 1448.637l11.276 37.177h36.487l-29.519 22.985 11.269 37.193-29.513-22.986-29.534 22.986 11.277-37.193-29.527-22.985h36.5z"/>
            </g>
        </g>
    </g>
    <path fill="#FFF" d="M-1855.217 2024.524l10.511 5.674 41.466 22.389-6.864-3.706h-.001l-45.112-24.357c-34.154 1.02-68.308 3.156-102.461 6.071a.055.055 0 0 1-.008-.006c-.516.044-1.03.095-1.546.139-5.876.505-11.753 1.032-17.629 1.582-.344.032-.688.061-1.031.093a.018.018 0 0 0 .005.004 2798.396 2798.396 0 0 0-50.518 5.229c-57.729 6.49-115.46 14.568-173.188 22.646l-12.425 1.737a23311.638 23311.638 0 0 1-30.049 4.182 9555.832 9555.832 0 0 1-40.569 5.522 6438.191 6438.191 0 0 1-21.877 2.881l-5.57.722c-6.386.821-12.771 1.635-19.156 2.43-.435.055-.869.106-1.304.16a3683.51 3683.51 0 0 1-23.185 2.806c-6.352.75-12.703 1.49-19.056 2.205-19.242 2.162-38.485 4.15-57.729 5.9s-38.486 3.268-57.73 4.488c-19.243 1.222-38.485 2.149-57.729 2.724-57.729 1.724-115.459.269-173.188-5.953-57.729-6.221-115.459-17.207-173.188-34.55-37.593 14.979-75.188 29.955-112.779 44.932l-112.762 44.922c76.524 21.939 153.05 35.457 229.574 42.654s153.049 8.076 229.575 4.744c25.507-1.111 51.015-2.689 76.521-4.657 25.51-1.969 51.018-4.327 76.525-6.999 25.509-2.669 51.018-5.652 76.526-8.869 4.829-.608 9.656-1.227 14.483-1.852l.078-.032c2.653-.344 5.307-.683 7.96-1.03-.016.007-.031.014-.048.02 1.206-.158 2.413-.322 3.62-.481 2.336-.309 4.672-.622 7.008-.934 6.907-.922 13.814-1.856 20.721-2.806 1.668-.23 3.337-.455 5.005-.686a6006.739 6006.739 0 0 0 24.698-3.473c2.19-.312 4.382-.627 6.572-.941 2.631-.377 5.263-.75 7.894-1.13l.005-.015 7.095-1.027-.005.014c2.076-.303 4.151-.611 6.228-.915 2.745-.401 5.491-.806 8.237-1.21 2.279-.336 4.559-.667 6.838-1.004l.003-.011c2.367-.351 4.733-.701 7.101-1.054l-.003.011c1.55-.231 3.101-.468 4.651-.7 10.246-1.529 20.492-3.07 30.738-4.625 1.026-.155 2.053-.309 3.079-.465 11.841-1.798 23.683-3.496 35.524-5.312.584-.09 1.169-.154 1.754-.154h-.004c6.78-1 13.561-2.195 20.341-3.236 76.524-11.755 153.048-23.568 229.572-33.219 23.112-2.914 46.224-5.662 69.337-8.135 2.17-.232 4.339-.474 6.509-.701 2.456-.258 4.911-.52 7.366-.771 2.16-.223 4.32-.443 6.479-.66 46.628-4.682 93.256-8.284 139.883-10.314-15.037-8.118-30.074-16.239-45.11-24.358l34.603 18.683c3.502 1.893 7.005 3.783 10.508 5.674 7.13-.311 14.257-.584 21.386-.819 62.265-2.058 124.532-1.197 186.799 3.716 7.131.562 14.26 1.178 21.391 1.85-66.46-13.545-128.219-25.277-185.28-35.981-57.052-10.701-109.408-20.369-157.065-29.656zm-912.951 92.785l-18.953 10.975 25.87-14.98c-2.306 1.334-4.611 2.669-6.917 4.005zm1447.274 4.201a10045209.553 10045209.553 0 0 1-187.949-56.487 875.274 875.274 0 0 0-9.752-2.863c-.961-.276-1.921-.548-2.882-.821a937.03 937.03 0 0 0-7.212-2.019c-.966-.267-1.931-.534-2.896-.797a897.429 897.429 0 0 0-9.732-2.596 954.062 954.062 0 0 0-9.953-2.523c-1.038-.258-2.076-.506-3.113-.76a956.679 956.679 0 0 0-6.936-1.67 941.78 941.78 0 0 0-10.303-2.369c-1.104-.248-2.208-.498-3.313-.741a956.337 956.337 0 0 0-8.15-1.757c-.604-.127-1.209-.26-1.812-.387a926.278 926.278 0 0 0-9.969-2.025c-.874-.174-1.748-.338-2.621-.509a961.312 961.312 0 0 0-10.813-2.044c-2.255-.412-4.51-.816-6.766-1.213-1.139-.2-2.277-.4-3.416-.597a954.53 954.53 0 0 0-7.412-1.243c-.861-.143-1.723-.289-2.585-.428a984.174 984.174 0 0 0-9.983-1.561c-.584-.089-1.169-.171-1.753-.258a924.166 924.166 0 0 0-11.513-1.648 1067.503 1067.503 0 0 0-10.301-1.365c-2.324-.295-4.648-.581-6.973-.861-1.027-.123-2.055-.25-3.082-.371a1053.94 1053.94 0 0 0-9.946-1.123l2.319.818-2.315-.816c-5.38-.58-10.76-1.119-16.139-1.617-46.972-4.35-93.945-5.643-140.92-4.732-5.376.104-10.754.235-16.132.396 47.66 9.287 100.017 18.955 157.073 29.651 57.058 10.704 118.816 22.437 185.272 35.981l-10.4-3.67 10.396 3.668c4.504.424 9.008.873 13.512 1.342 1.473.152 2.943.318 4.415.475 3.044.326 6.087.656 9.131 1.004 1.733.197 3.466.404 5.199.608 2.796.329 5.593.664 8.389 1.011a1452.04 1452.04 0 0 1 19.124 2.515c2.791.388 5.582.789 8.373 1.195 1.738.252 3.478.502 5.217.762 3.049.457 6.098.932 9.146 1.41 1.467.23 2.935.451 4.402.688a1262.736 1262.736 0 0 1 27.055 4.643c1.451.266 2.903.545 4.355.816 3.062.57 6.125 1.146 9.188 1.741 1.724.335 3.446.681 5.169 1.022 2.809.559 5.617 1.123 8.426 1.701 1.804.371 3.607.75 5.411 1.13 2.754.579 5.507 1.17 8.261 1.771 1.805.393 3.609.787 5.415 1.189 2.812.627 5.626 1.268 8.438 1.916 1.717.395 3.434.786 5.15 1.189 3.079.723 6.158 1.467 9.236 2.215 1.439.351 2.879.691 4.318 1.047 14.08 3.479 28.16 7.227 42.241 11.264l-37.589-11.297z"/>
    <g>
        <defs>
            <path id="e" d="M797.171 115.509c29.366 3.165 58.731 8.754 88.099 17.575L1000 167.566c-38.928-11.161-77.854-18.036-116.781-21.698-28.684-10.119-57.366-20.239-86.048-30.359z"/>
        </defs>
        <clipPath id="f">
            <use xlink:href="#e" overflow="visible"/>
        </clipPath>
        <g clip-path="url(#f)">
            <defs>
                <path id="g" d="M797.171 115.509c29.366 3.165 58.731 8.754 88.099 17.575L1000 167.566c-38.928-11.161-77.854-18.036-116.781-21.698-28.684-10.119-57.366-20.239-86.048-30.359z"/>
            </defs>
        </g>
        <g>
            <path fill="#009246" d="M356.676 148.861a874.047 874.047 0 0 0 29.366-1.386l-47.806 48.232a1164.959 1164.959 0 0 1-38.926 2.369c19.123-16.404 38.244-32.809 57.366-49.215z"/>
            <path fill="#FFF" d="M386.042 147.476c9.789-.621 19.577-1.393 29.366-2.283l-38.244 46.955a1432.049 1432.049 0 0 1-38.928 3.56l47.806-48.232z"/>
            <path fill="#E92E2F" d="M415.408 145.192c9.789-.89 19.578-1.902 29.366-3.001l-28.682 45.445a1853.123 1853.123 0 0 1-38.929 4.512l38.245-46.956zM182.528 195.663c38.927 3.661 77.854 4.108 116.782 2.414l57.365-49.215c-29.366.876-58.732.136-88.1-3.028l-86.047 49.829z"/>
            <path fill="#FFF" d="M196.871 187.357c37.334 3.578 74.668 4.075 112.001 2.516l38.242-32.809c-30.96 1.013-61.92.321-92.88-2.926l-57.363 33.219z"/>
            <path fill="#002F6C" d="M211.215 179.052c35.739 3.494 71.479 4.041 107.22 2.618l19.12-16.404c-32.553 1.148-65.105.507-97.658-2.824-9.562 5.536-19.124 11.072-28.682 16.61z"/>
            <path fill="#488A30" d="M777.316 143.039c31.674-1.047 63.348-.609 95.023 1.89-27.146-5.351-52.709-10.13-76.688-14.551-4.528 3.762-10.641 7.965-18.335 12.661zM788.963 114.688c-23.894-2.213-47.789-2.871-71.685-2.408 20.089 3.94 41.761 8.039 65.015 12.476 3.806-3.746 6.029-7.074 6.67-10.068z"/>
            <path d="M761.092 140.568c7.695-4.859 13.807-9.234 18.338-13.173-23.252-4.264-44.924-8.214-65.012-12.027l46.674 25.2zM875.201 143.04l-70.01-24.701c-.642 2.81-2.865 5.954-6.672 9.521 23.979 4.605 49.54 9.593 76.682 15.18z"/>
            <path fill="#F1DA28" d="M766.438 143.455c3.627-.158 7.252-.297 10.879-.416 7.693-4.696 13.807-8.897 18.336-12.661 23.979 4.421 49.542 9.2 76.688 14.551 3.627.286 7.253.599 10.881.94-33.809-6.89-65.225-12.857-94.25-18.303-5.122 4.614-12.632 9.878-22.534 15.889zM788.963 114.688c-.641 2.994-2.864 6.322-6.67 10.068-23.254-4.437-44.926-8.536-65.015-12.476-2.734.053-5.471.121-8.206.202 24.244 4.725 50.877 9.643 79.902 15.084 5.121-4.615 7.855-8.58 8.198-12.056a542.895 542.895 0 0 0-8.209-.822z"/>
            <path fill="#F1DA28" d="M797.173 115.51c-.343 3.476-3.077 7.441-8.198 12.056 29.023 5.445 60.439 11.413 94.246 18.303-2.674-.942-5.346-1.885-8.02-2.829-27.143-5.587-52.703-10.576-76.682-15.18 3.807-3.566 6.03-6.711 6.672-9.521l-8.018-2.829zM714.418 115.368c20.088 3.813 41.76 7.763 65.012 12.027-4.531 3.939-10.643 8.314-18.338 13.173l5.346 2.886c9.902-6.011 17.412-11.274 22.533-15.889-29.023-5.441-55.655-10.359-79.898-15.084l5.345 2.887z"/>
            <g>
                <path fill="#0071BB" d="M649.655 153.896c38.929-4.909 77.854-8.747 116.782-10.442l-57.365-30.973c-29.366.876-58.732 3.369-88.099 6.67l28.682 34.745z"/>
                <path fill="#F3D02F" d="M683.717 149.902c4.541-.489 9.082-.96 13.625-1.41l-40.395-32.924c-3.428.292-6.854.6-10.278.922l37.048 33.412z"/>
                <path fill="#F3D02F" d="M638.183 139.999c35.103-4.266 70.206-7.566 105.31-8.933l-11.473-6.193c-33.19 1.203-66.381 4.234-99.572 8.179l5.735 6.947z"/>
            </g>
            <g fill-rule="evenodd" clip-rule="evenodd">
                <path fill="#0071BB" d="M180.477 128.258c29.367 8.822 58.732 14.411 88.1 17.575L225.55 170.75c-34.146-3.413-68.295-9.645-102.441-19.636l57.368-22.856"/>
                <path fill="#FCE82B" d="M123.107 151.114c34.146 9.991 68.295 16.224 102.441 19.636l-43.021 24.913c-38.927-3.661-77.854-10.538-116.782-21.698l57.362-22.851"/>
            </g>
            <g>
                <path fill="#FFF" d="M532.875 170.766c38.927-5.98 77.854-11.96 116.78-16.87-9.56-11.582-19.12-23.163-28.682-34.744-29.366 3.301-58.733 7.41-88.099 11.52l.001 40.094z"/>
                <path d="M594.307 128.757a292.81 292.81 0 0 0 5.352 3.01c-.488.364-.982.729-1.481 1.095a289.436 289.436 0 0 1-5.322-3.013c.487-.366.97-.728 1.451-1.092zM600.654 132.311a320.81 320.81 0 0 0 5.593 2.973l-1.519 1.096a320.658 320.658 0 0 1-5.562-2.973c.5-.366.996-.732 1.488-1.096zM596.436 127.133a316.656 316.656 0 0 0 12.039 6.518c-.488.361-.98.724-1.478 1.088a313.064 313.064 0 0 1-11.974-6.523c.476-.363.946-.723 1.413-1.083zM598.502 125.522a303.473 303.473 0 0 0 5.445 3.001c-.464.356-.931.714-1.402 1.073a306.184 306.184 0 0 1-5.414-3.002c.461-.357.918-.715 1.371-1.072zM604.959 129.066c1.861.993 3.756 1.981 5.686 2.964l-1.439 1.077a328.768 328.768 0 0 1-5.654-2.966c.473-.358.942-.718 1.407-1.075zM562.132 150.547c3.396 2.255 6.95 4.48 10.667 6.677-.672.405-1.348.811-2.027 1.218a236.535 236.535 0 0 1-10.601-6.688 528.9 528.9 0 0 0 1.961-1.207zM559.182 152.362a225.806 225.806 0 0 0 4.721 3.087c-.672.406-1.35.812-2.031 1.221a219.257 219.257 0 0 1-4.691-3.094l2.001-1.214zM564.783 156.006a249.656 249.656 0 0 0 4.963 3.045c-.685.408-1.373.816-2.067 1.227a251.449 251.449 0 0 1-4.933-3.05c.684-.408 1.363-.816 2.037-1.222zM556.167 154.185a229.948 229.948 0 0 0 10.465 6.708c-.699.411-1.401.822-2.108 1.235a226.265 226.265 0 0 1-10.396-6.718l2.039-1.225zM558.295 141.928a170.127 170.127 0 0 0 5.975-9.096c.699.208 1.404.415 2.114.62a167.412 167.412 0 0 1-5.908 9.078c-.732-.201-1.458-.402-2.181-.602zM555.072 141.014a173.356 173.356 0 0 0 6.075-9.118c.687.208 1.378.417 2.074.626a170.635 170.635 0 0 1-6.008 9.103c-.718-.203-1.432-.407-2.141-.611zM551.91 140.09a175.566 175.566 0 0 0 6.174-9.141c.674.212 1.352.423 2.035.634a174.724 174.724 0 0 1-6.109 9.124 456.71 456.71 0 0 1-2.1-.617zM604.338 152.666a135.928 135.928 0 0 0 2.275-4.043c.881.179 1.768.358 2.659.537a137.555 137.555 0 0 1-2.243 4.036l-2.691-.53zM607.004 147.891a121.425 121.425 0 0 0 2.034-3.993c.871.183 1.745.364 2.624.546a122.749 122.749 0 0 1-2.003 3.985c-.889-.179-1.774-.357-2.655-.538zM608.387 153.456a138.672 138.672 0 0 0 2.228-4.031c.896.178 1.796.355 2.7.532a133.392 133.392 0 0 1-2.197 4.022c-.915-.174-1.826-.349-2.731-.523zM610.996 148.696c.697-1.333 1.36-2.66 1.99-3.978.882.18 1.771.36 2.662.54a121.227 121.227 0 0 1-1.957 3.972c-.902-.177-1.8-.355-2.695-.534zM612.492 154.238c.762-1.346 1.49-2.684 2.184-4.016.91.176 1.822.351 2.74.526-.683 1.329-1.4 2.666-2.151 4.008-.929-.172-1.853-.345-2.773-.518zM615.051 149.494a120.298 120.298 0 0 0 1.941-3.966c.896.179 1.799.359 2.705.537a117.774 117.774 0 0 1-1.912 3.959c-.916-.176-1.827-.353-2.734-.53z"/>
                <path fill="#B50037" d="M570.158 139.772a2.679 2.679 0 0 0-.108.176c.036-.06.069-.119.108-.176"/>
                <path fill="#E92E2F" d="M588.916 134.438c-7.717-1.957-15.551.333-18.758 5.334-1.584 2.495.055 5.334 3.974 6.282 3.911.95 8.511-.322 9.964-2.785 1.479-2.47 5.707-3.663 9.759-2.718 4.046.945 6.489 3.639 5.142 6.076 2.681-4.865-2.399-10.226-10.081-12.189"/>
                <path fill="#002F6C" d="M570.158 139.772c-1.584 2.495.055 5.334 3.974 6.282 3.911.95 8.511-.322 9.964-2.785 1.479-2.47 5.707-3.663 9.759-2.718 4.046.945 6.489 3.639 5.142 6.076-2.648 4.856-12.479 7.5-20.689 5.673-8.246-1.82-11.328-7.534-8.15-12.528"/>
            </g>
            <g>
                <path fill="#FFF" d="M416.092 187.636c38.928-4.909 77.855-10.89 116.783-16.87v-40.094c-29.367 4.109-58.732 8.217-88.101 11.519l-28.682 45.445z"/>
                <path fill="#E92E2F" d="M500.338 149.879c11.848-5.981 22.692-11.802 32.537-17.423v-1.784l-2.011.281c-11.144 6.395-23.589 13.044-37.336 19.894 2.271-.321 4.54-.643 6.81-.968zM495.851 162.58c11.243 2.843 23.585 5.431 37.024 7.803v-2.661c-10.578-1.932-20.455-4.002-29.627-6.23-2.465.365-4.931.727-7.397 1.088zM442.59 145.653c6.178 3.31 13.165 6.41 20.959 9.308 2.271-.3 4.541-.603 6.812-.909-9.851-3.498-18.473-7.3-25.865-11.419l-1.906 3.02zM463.279 167.23c-14.552 6.607-30.227 13.345-47.021 20.141l-.167.265c2.457-.31 4.912-.625 7.369-.942 16.898-6.929 32.638-13.785 47.216-20.495-2.465.346-4.931.69-7.397 1.031z"/>
                <path fill="#002F6C" d="M526.847 131.514a6524.85 6524.85 0 0 1-30.845 4.257l-4.037 14.264c12.754-6.358 24.379-12.547 34.882-18.521zM482.379 137.585a2188.319 2188.319 0 0 1-30.723 3.818c7.277 3.857 15.676 7.429 25.195 10.728l5.528-14.546zM532.875 145.168v-9.197a724.349 724.349 0 0 1-23.387 12.594c7.795-1.124 15.591-2.26 23.387-3.397zM532.875 166.173v-9.097a16061.86 16061.86 0 0 1-25.411 3.792c7.955 1.878 16.425 3.642 25.411 5.305zM427.525 186.163a2959.539 2959.539 0 0 0 38.414-5.316c1.73-4.558 3.463-9.115 5.195-13.672-13.542 6.223-28.078 12.572-43.609 18.988zM483.998 178.197a8851.45 8851.45 0 0 0 38.531-5.842c-12.577-2.305-24.156-4.817-34.738-7.566l-3.793 13.408zM425.886 172.119l-6.801 10.776a1210.359 1210.359 0 0 0 33.098-14.154 2271.554 2271.554 0 0 1-26.297 3.378zM434.404 158.622c8.067-.955 16.135-1.963 24.204-3.014-6.355-2.451-12.153-5.043-17.392-7.781l-6.812 10.795z"/>
                <path fill="#E92E2F" d="M485.102 137.227l-6.547 18.143c-15.285 2.118-30.57 4.131-45.855 5.952-1.703 2.7-3.406 5.399-5.111 8.098 16.065-1.952 32.131-4.106 48.195-6.37l-6.234 17.273c3.612-.526 7.225-1.057 10.836-1.592l5.168-17.072c15.773-2.262 31.547-4.614 47.322-6.965v-7.145c-15.009 2.201-30.018 4.401-45.025 6.519l5.428-17.931c-2.726.368-5.453.731-8.177 1.09z"/>
            </g>
            <g>
                <defs>
                    <path id="h" d="M797.171 115.509c29.366 3.165 58.731 8.754 88.099 17.575L1000 167.566c-38.928-11.161-77.854-18.036-116.781-21.698-28.684-10.119-57.366-20.239-86.048-30.359z"/>
                </defs>
                <clipPath id="i">
                    <use xlink:href="#h" overflow="visible"/>
                </clipPath>
                <path clip-path="url(#i)" fill="#002F6C" d="M811.511 120.569c30.96 3.247 61.921 9.05 92.879 18.262l-19.12-5.747c-29.367-8.821-58.732-14.41-88.099-17.575l14.34 5.06zM883.219 145.868c38.926 3.663 77.854 10.537 116.781 21.698l-19.123-5.748c-37.332-10.77-74.666-17.431-112.002-21.009l14.344 5.059z"/>
                <path clip-path="url(#i)" fill="#E92E2F" d="M866.486 139.965c37.068 3.565 74.137 10.19 111.203 20.896l-70.111-21.071c-31.225-9.277-62.451-15.116-93.676-18.376l52.584 18.551z"/>
                <path clip-path="url(#i)" fill="#FFF" d="M813.902 121.413c31.225 3.261 62.451 9.1 93.676 18.376l-3.188-.958c-30.958-9.211-61.919-15.015-92.879-18.262l2.391.844zM868.875 140.809c37.336 3.579 74.67 10.239 112.002 21.009l-3.188-.958c-37.066-10.706-74.135-17.331-111.203-20.896.797.283 1.594.563 2.389.845z"/>
                <g clip-path="url(#i)">
                    <defs>
                        <path id="j" d="M797.171 115.509c29.366 3.165 58.731 8.754 88.099 17.575L1000 167.566c-38.928-11.161-77.854-18.036-116.781-21.698-28.684-10.119-57.366-20.239-86.048-30.359z"/>
                    </defs>
                    <clipPath id="k">
                        <use xlink:href="#j" overflow="visible"/>
                    </clipPath>
                    <path clip-path="url(#k)" fill="#FFF" d="M858.43 129.046c6.791 1.165 22.409 5.442 34.881 9.356 12.473 3.919 16.199 5.858 8.325 4.562-7.876-1.301-23.494-5.247-34.882-9.036-11.39-3.783-15.115-6.055-8.324-4.882"/>
                    <path clip-path="url(#k)" fill="#E92E2F" d="M859.111 129.265c5.721 1.707 11.484 3.421 17.287 5.144 3.059.533 6.113 1.093 9.17 1.68a16.432 16.432 0 0 1 1.64 1.523c5.854 1.731 11.747 3.471 17.681 5.219a5139.388 5139.388 0 0 0-16.863-4.251c.4.528.735 1.067 1.006 1.615a2071.09 2071.09 0 0 0-11.238-4.166 7028.19 7028.19 0 0 0-16.237-4.008c3.058.451 6.116.926 9.173 1.428a2340.206 2340.206 0 0 0-11.619-4.184z"/>
                </g>
            </g>
        </g>
        <g>
            <defs>
                <path id="l" d="M797.171 115.509c29.366 3.165 58.731 8.754 88.099 17.575L1000 167.566c-38.928-11.161-77.854-18.036-116.781-21.698-28.684-10.119-57.366-20.239-86.048-30.359z"/>
            </defs>
            <clipPath id="m">
                <use xlink:href="#l" overflow="visible"/>
            </clipPath>
            <g clip-path="url(#m)">
                <defs>
                    <path id="n" d="M797.171 115.509c29.366 3.165 58.731 8.754 88.099 17.575L1000 167.566c-38.928-11.161-77.854-18.036-116.781-21.698-28.684-10.119-57.366-20.239-86.048-30.359z"/>
                </defs>
            </g>
        </g>
        <g>
            <g fill="#1A1A1A">
                <path d="M637.883 3.049c0-1.183.212-1.988.639-2.413.423-.424 1.222-.636 2.392-.636h8.932c1.17 0 1.961.212 2.381.636.418.425.625 1.23.625 2.413v6.797c0 1.183-.207 1.986-.625 2.411-.42.425-1.211.636-2.381.636h-8.932c-1.17 0-1.969-.211-2.393-.636-.427-.425-.639-1.228-.639-2.411V3.049zm2.148 8.047h10.67V1.723h-10.67v9.373zM662.65 12.894L655.6 0h2.326l5.697 10.746L669.07 0h2.126l-6.751 12.894h-1.795zM674.116 12.894V0h12.421v1.723h-10.27v3.601h6.272v1.699h-6.272v4.097h10.369v1.774h-12.52zM690.514 12.894V0h10.376c.944 0 1.636.196 2.067.588.434.392.65 1.029.65 1.911v2.874c0 .884-.217 1.52-.65 1.912-.432.392-1.123.586-2.067.586h-1.895l5.893 5.023h-3.194l-5.243-5.023h-3.786v5.023h-2.151zm9.543-11.219h-7.393v4.523h7.393c.52 0 .881-.091 1.089-.275.211-.184.313-.533.313-1.05V2.998c0-.499-.103-.845-.313-1.036-.208-.191-.57-.287-1.089-.287zM719.304 1.723h-9.124v3.625h8.123c1.168 0 1.959.216 2.373.649.414.435.625 1.233.625 2.399v1.45c0 1.183-.211 1.986-.625 2.411-.414.425-1.205.636-2.373.636h-7.522c-1.167 0-1.962-.211-2.39-.636-.422-.425-.637-1.228-.637-2.411v-.35l2.001-.475v2.075h9.597V7.222h-8.096c-1.151 0-1.938-.213-2.365-.638-.422-.424-.636-1.228-.636-2.411V3.049c0-1.2.214-2.007.636-2.424.427-.417 1.213-.625 2.365-.625h6.873c1.098 0 1.875.198 2.334.591.457.394.686 1.129.686 2.207v.278l-1.845.522V1.723zM726.574 12.894V0h12.418v1.723h-10.271v3.601h6.272v1.699h-6.272v4.097h10.371v1.774h-12.518zM740.443 12.894L747.488 0h2.301l7.173 12.894h-2.375l-1.65-3.173h-8.721l-1.65 3.173h-2.123zm4.672-4.824h6.945l-3.469-6.596-3.476 6.596zM770.878 1.723h-9.12v3.625h8.123c1.164 0 1.955.216 2.375.649.414.435.619 1.233.619 2.399v1.45c0 1.183-.205 1.986-.619 2.411-.42.425-1.211.636-2.375.636h-7.521c-1.17 0-1.964-.211-2.388-.636-.425-.425-.639-1.228-.639-2.411v-.35l1.998-.475v2.075h9.596V7.222h-8.093c-1.153 0-1.939-.213-2.362-.638-.427-.424-.641-1.228-.641-2.411V3.049c0-1.2.214-2.007.641-2.424.424-.417 1.21-.625 2.363-.625h6.87c1.101 0 1.879.198 2.334.591.461.394.689 1.129.689 2.207v.278l-1.851.522V1.723zM786.246 12.894V0h12.271v1.749h-10.12v4.224h5.772v1.723h-5.772v5.198h-2.151zM800.918 12.894V0h2.148v12.894h-2.148zM808.514 12.894V0h12.419v1.723h-10.269v3.601h6.271v1.699h-6.271v4.097h10.367v1.774h-12.517zM824.908 12.894V0h2.147v11.096h9.773v1.797h-11.92zM847.072 0c2.268 0 3.915.334 4.951 1 .833.532 1.483 1.274 1.961 2.223.473.95.711 2 .711 3.147 0 2.519-.891 4.358-2.672 5.524-1.018.667-2.668.999-4.951.999h-7.096V0h7.096zm-.297 1.723h-4.648v9.374h4.648c1.997 0 3.431-.335 4.298-1.003.95-.719 1.425-1.963 1.425-3.733 0-1.703-.475-2.915-1.425-3.635-.883-.667-2.317-1.003-4.298-1.003zM867.014 12.894V0h10.377c.951 0 1.637.196 2.07.588.434.392.649 1.029.649 1.911v2.874c0 .884-.216 1.52-.649 1.912s-1.119.586-2.07.586h-1.895l5.898 5.023h-3.201l-5.239-5.023h-3.79v5.023h-2.15zm9.548-11.219h-7.398v4.523h7.398c.518 0 .875-.091 1.086-.275.206-.184.312-.533.312-1.05V2.998c0-.499-.106-.845-.312-1.036-.21-.191-.568-.287-1.086-.287zM884.809 12.894V0h12.421v1.723h-10.273v3.601h6.276v1.699h-6.276v4.097h10.374v1.774h-12.522zM901.202 12.894V0h10.374c.951 0 1.637.196 2.073.588.431.392.646 1.029.646 1.911v2.874c0 .884-.216 1.52-.646 1.912-.435.392-1.122.586-2.071.586h-8.225v5.023h-2.151zm9.544-11.219h-7.393v4.473h7.393c.52 0 .881-.095 1.092-.286.205-.192.309-.543.309-1.057V3.018c0-.514-.105-.867-.322-1.056-.218-.192-.579-.287-1.079-.287zM918.169 3.049c0-1.183.214-1.988.639-2.413.424-.424 1.222-.636 2.389-.636h8.938c1.17 0 1.961.212 2.378.636.417.425.628 1.23.628 2.413v6.797c0 1.183-.211 1.986-.628 2.411-.417.425-1.208.636-2.378.636h-8.938c-1.167 0-1.965-.211-2.39-.636-.425-.425-.639-1.228-.639-2.411V3.049zm2.149 8.047h10.672V1.723h-10.672v9.373zM938.413 12.894V0h10.374c.947 0 1.639.196 2.07.588.436.392.65 1.029.65 1.911v2.874c0 .884-.215 1.52-.65 1.912-.432.392-1.123.586-2.07.586h-1.895l5.898 5.023h-3.201l-5.239-5.023h-3.786v5.023h-2.151zm9.546-11.219h-7.395v4.523h7.395c.514 0 .879-.091 1.087-.275s.313-.533.313-1.05V2.998c0-.499-.105-.845-.313-1.036-.208-.191-.573-.287-1.087-.287zM961.203 1.749v11.145h-2.15V1.749h-5.898V0h13.969v1.749h-5.921z"/>
            </g>
            <path fill="#1A1A1A" d="M114.693 59.166c0 38.136-24.955 62.016-57.774 62.016C22.393 121.182 0 94.985 0 62.195 0 33.324 18.461 0 59.312 0c31.281 0 55.381 23.881 55.381 59.166zm-82.901-3.03c0 32.256 11.624 55.779 28.375 55.779 14.699 0 22.734-14.792 22.734-47.047 0-35.82-12.308-55.601-27.009-55.601-13.16.001-24.1 15.683-24.1 46.869zM520.439 75.79c0 27.454-17.471 44.645-40.443 44.645-24.17 0-39.842-18.858-39.842-42.463 0-20.782 12.92-44.772 41.517-44.772 21.895-.001 38.768 17.191 38.768 42.59zm-58.033-2.18c0 23.218 8.137 40.153 19.863 40.153 10.289 0 15.912-10.648 15.912-33.869 0-25.784-8.615-40.025-18.902-40.025-9.215.001-16.873 11.29-16.873 33.741z"/>
            <path fill="#1A1A1A" d="M151.223 53.637h11.622c14.7 0 15.214-1.1 16.922-14.111h7.521V80.21h-7.521c-1.708-14.478-2.222-15.579-16.922-15.579h-11.622v25.475c0 19.793 1.367 21.075 15.384 22.175v7.147h-57.091v-7.147c11.281-1.1 12.648-2.382 12.648-22.175V29.629c0-19.793-1.367-21.076-12.648-22.176V.306h82.559c.17 3.116 1.025 16.494 1.881 30.606l-7.521.55c-1.709-9.347-3.59-14.479-6.325-17.411-2.735-3.114-8.373-4.215-17.434-4.215h-8.034c-3.076 0-3.418 0-3.418 6.78v37.021zM398.983 98.901c0 13.855.958 14.752 10.887 15.523v5.003h-39.723v-5.003c8.136-.771 9.093-1.668 9.093-15.523V56.566c0-13.855-.957-14.752-8.494-15.521v-5.003h34.939c11.245 0 17.825 1.795 22.611 5.516 5.145 3.977 8.495 9.878 8.495 18.473 0 17.19-11.964 26.043-25.366 27.326-1.315.127-2.512.127-3.469.127l-8.974-2.179v13.596zm0-20.012c1.437.514 3.229 1.027 5.144 1.027 3.83 0 11.247-3.08 11.247-20.013 0-13.342-6.819-17.447-12.204-17.447-3.949 0-4.187.642-4.187 4.618v31.815zM965.929 36.041v5.003c-9.096.897-9.573 1.411-9.215 14.882l1.196 42.975c.359 14.241.598 14.625 9.213 15.523v5.003h-37.449v-5.003c8.973-.899 9.332-1.283 9.213-15.523l-.359-45.158h-.478l-23.093 64.272h-6.459l-21.897-59.781h-.236l-.839 28.48c-.361 11.032-.242 17.19.238 21.167.479 4.747 3.109 5.901 10.889 6.543v5.003H867.1v-5.003c5.743-.513 8.017-1.796 8.732-6.543.601-3.977 1.317-10.777 1.914-22.45l1.317-25.915c.836-16.164-.12-17.575-9.571-18.472v-5.003h28.115l20.939 50.802 18.306-50.802h29.077zM305.588 119.45h59.068c1.076-3 3.59-16.488 4.186-22.773l-5.264-.868c-1.795 6.158-3.829 10.92-5.863 13.229-2.632 3.081-7.896 3.857-12.682 3.857-3.711 0-6.47-.124-8.385-1.15-2.153-1.155-2.402-4.358-2.402-11.028V80.45h6.001c10.289 0 10.647 1 11.844 12h5.155v-31h-5.155c-1.196 10-1.555 11-11.844 11h-6.001V47.348c0-4.492.259-3.898 4.806-3.898h2.031c6.343 0 10.291.474 12.205 2.656 1.913 2.051 3.23 5.496 4.427 11.783l5.266-.329c-.6-9.621-1.197-19.109-1.316-21.109h-56.418v4.74c8 .77 8 1.667 8 15.521v42.335c0 13.213-.537 14.642-8.609 15.414-3.786-1.485-6.186-3.796-9.047-7.378-2.736-3.665-6.412-9.896-12.224-19.609-4.958-8.43-11.239-21.076-13.63-26.206 12.647-5.316 22.068-14.846 22.068-30.974 0-10.812-5.115-19.044-11.953-23.626C273.185 2.087 264.309.45 250.976.45h-53.729v7.12c11 1.1 13 2.384 13 22.177v60.476c0 19.794-2 21.076-13 22.175v7.053h54v-7.053c-12-1.099-14-2.381-14-22.175V68.45h2.791c3.246 0 5.641 2.64 7.177 6.488 4.274 10.262 9.06 21.582 14.187 29.463 4.977 7.735 9.326 13.049 20.677 15.049h23.509zm-52.562-63.032c-3.247 2.565-7.349 3.032-12.82 3.032h-2.96V17.466c0-7.331.795-7.882 7.976-7.882 6.666 0 17.233 5.823 17.233 23.418 0 8.981-2.42 17.552-9.429 23.416zM603.023 47.165c1.916-2.304 5.145-3.715 13.159-3.715h2.063v55.509c0 13.816-1 14.711-11 15.48v3.211c5-.532 9.077-1.053 13.505-1.55 7.64-.859 15.233-1.657 22.872-2.392-4.766-1.173-5.377-4.178-5.377-14.75V43.45h3.185c5.743 0 9.69.507 11.724 2.809 1.796 2.175 3.112 5.372 4.907 13.047l5.265-.263c-.598-9.466-1.197-20.592-1.316-25.592h-3.707c-1.918 2-2.514 3-5.626 3H604.94c-3.23 0-4.428-1-6.223-3h-3.709c-.239 6-.959 15-1.438 26h5.026c1.553-7.001 2.994-10.368 4.427-12.286zM556.246 114.529c-8-.771-9-1.668-9-15.523V83.45h1.732c2.272 0 3.947 2.004 5.025 4.699 2.992 7.185 6.342 15.179 9.929 20.694 4.399 6.838 8.1 10.659 21.856 11.53 3.031-.394 6.062-.771 9.093-1.153l.162-3.03c-2.993-1.026-4.906-2.692-7.06-5.386-1.914-2.565-4.548-6.927-8.615-13.726-3.47-5.901-7.896-14.752-9.574-18.344 8.857-3.72 15.437-10.392 15.437-21.681 0-7.57-3.589-13.189-8.374-16.396-4.667-3.208-10.891-4.209-20.223-4.209h-37.389v4.698c8 .77 9 1.667 9 15.523v42.335c0 13.855-1 14.752-9 15.523v4.92h37v-4.918zm-9-66.455c0-5.13.446-5.515 5.472-5.515 4.667 0 12.011 4.104 12.011 16.422 0 6.285-1.773 12.248-6.68 16.354-2.271 1.797-5.123 2.115-8.951 2.115h-1.852V48.074zM700.562 109.734c.771-2.033 1.197-4.319 1.197-6.798 0-9.53-6.496-16.494-15.041-16.494-8.377 0-14.872 6.964-14.872 16.494 0 3.105.667 5.908 1.843 8.288a915.88 915.88 0 0 1 26.873-1.49zM765.302 109.94c4.392.227 8.782.501 13.173.826 1.696-5.412 3.525-12.676 4.654-18.127l-5.264-.888c-3.853 8.82-7.66 14.902-12.563 18.189zM723.508 109.136c7.267-.08 14.532-.054 21.798.092-7.577-5.764-13.025-18.131-13.025-34.742 0-18.282 8.854-34.788 23.212-34.788 8.496 0 15.914 4.064 19.742 19.553l5.264-.762c-.717-9.522-1.194-15.108-2.152-22.091-3.351-.763-11.369-3.301-21.297-3.301-27.641 0-47.023 18.028-47.023 44.308-.002 11.592 4.079 23.55 13.481 31.731zM803.732 113.209l.066.008c1.182.143 2.363.288 3.547.438l1.775.229c1.154.151 2.31.306 3.464.465l1.675.231c1.395.196 2.787.399 4.182.607.297.044.595.086.892.131 1.692.256 3.386.521 5.079.794.438.07.876.145 1.314.217 1.257.207 2.514.416 3.771.633.579.099 1.158.202 1.737.303a495.142 495.142 0 0 1 5.181.937c.887.166 1.771.337 2.658.508 16.735-4.987 28.346-20.542 28.346-42.923 0-25.399-16.872-42.591-38.768-42.591-28.595 0-41.516 23.99-41.516 44.772.002 14.748 6.117 27.64 16.597 35.241zm22.529-73.339c10.288 0 18.903 14.241 18.903 40.025 0 23.22-5.623 33.869-15.914 33.869-11.724 0-19.861-16.936-19.861-40.153 0-22.452 7.659-33.741 16.872-33.741z"/>
        </g>
    </g>
</svg>
