<?xml version="1.0" encoding="UTF-8"?>
<svg width="351px" height="73px" viewBox="0 0 351 73" version="1.1" xmlns="http://www.w3.org/2000/svg" xmlns:xlink="http://www.w3.org/1999/xlink">
    <!-- Generator: Sketch 43.2 (39069) - http://www.bohemiancoding.com/sketch -->
    <title>To God be the Glory!</title>
    <desc>Created with Sketch.</desc>
    <defs></defs>
    <g id="Page-1" stroke="none" stroke-width="1" fill="none" fill-rule="evenodd">
        <path d="M18.3541995,16.7649246 C16.0200765,16.7649246 13.9561375,16.8729842 12.1623208,17.0891067 C10.368504,17.3052292 8.79083338,17.7590797 7.4292616,18.4506717 C6.06768983,19.1422637 4.846616,20.1472183 3.76600348,21.4655655 C2.68539096,22.7839128 1.69124236,24.5452848 0.783527842,26.7497343 C0.697078841,26.9226323 0.599825173,26.9766622 0.491763921,26.9118254 C0.383702669,26.8469887 0.286449001,26.6848992 0.2,26.4255522 C0.589020507,25.2584907 1.04287096,24.1238646 1.56156497,23.0216398 C2.08025897,21.919415 2.67458694,20.9036545 3.34456671,19.9743277 C4.01454647,19.045001 4.76015792,18.2561657 5.58142343,17.6077981 C6.40268895,16.9594306 7.31038985,16.548804 8.30455337,16.375906 C9.38516588,16.1597835 10.5954338,16.0625299 11.9353933,16.0841421 C13.2753528,16.1057544 14.6152922,16.1165603 15.9552517,16.1165603 C17.2087623,16.1165603 18.462254,16.1273663 19.7157645,16.1489785 C20.969275,16.1705908 22.2227667,16.1813968 23.4762773,16.1813968 L26.2642436,16.1813968 C29.7222037,16.1381723 32.4885302,15.5546502 34.5633063,14.4308132 C35.2116738,14.0850172 35.8600316,13.566331 36.5083991,12.874739 C37.1567666,12.183147 37.4809455,11.4267296 37.4809455,10.605464 C37.4809455,10.3893415 37.4593336,10.2380581 37.4161091,10.1516091 C37.3728846,10.1083845 37.3512726,10.0435488 37.3512726,9.95709977 C37.3512726,9.78420177 37.4161084,9.69775406 37.5457819,9.69775406 C37.5890064,9.69775406 37.6538422,9.74097791 37.7402912,9.82742692 C38.2589852,10.3893454 38.6479999,10.9512555 38.9073469,11.513174 C39.0370204,11.686072 39.1018562,11.9454151 39.1018562,12.2912111 C39.1018562,12.5505581 39.0154085,12.8531251 38.8425104,13.1989211 C38.1076939,14.4092071 37.0162917,15.2736842 35.5682709,15.7923782 C34.1202501,16.3110722 32.3588781,16.6136392 30.2841021,16.7000882 C29.5492856,16.7433127 28.7712562,16.7541186 27.9499907,16.7325064 C27.1287252,16.7108941 26.3939197,16.7217001 25.7455522,16.7649246 C25.1404092,16.7649246 24.6865587,16.9810439 24.3839872,17.4132889 C21.9634152,21.0873714 19.7265808,24.6749512 17.6734171,28.1761357 C15.6202533,31.6773203 13.7508217,34.9623331 12.0650661,38.0312726 C11.6760456,38.7660891 11.3626727,39.4468648 11.1249379,40.0736201 C10.8872032,40.7003753 10.7467257,41.2730914 10.7035012,41.7917854 C10.7035012,42.1375814 10.746725,42.4725663 10.833174,42.79675 C10.919623,43.1209338 11.1141304,43.4018888 11.4167019,43.6396236 C11.7192734,43.8773583 12.1623179,44.0718656 12.7458486,44.2231514 C13.3293794,44.3744372 14.0966027,44.4500789 15.0475418,44.4500789 L15.8255789,44.4500789 C16.1281504,44.4500789 16.3874935,44.428467 16.603616,44.3852425 C16.7332895,44.5581405 16.6684537,44.7310359 16.4091067,44.9039339 C15.6742902,44.9903829 14.853037,45.0444127 13.9453225,45.066025 C13.037608,45.0876372 12.1947429,45.0984432 11.4167019,45.0984432 C10.7683343,45.0984432 10.1523945,45.0876372 9.56886369,45.066025 C8.98533293,45.0444127 8.4666467,44.957965 8.01278944,44.8066792 C7.55893219,44.6553935 7.19152944,44.4284683 6.91057019,44.1258968 C6.62961093,43.8233253 6.48913341,43.3910867 6.48913341,42.8291682 C6.48913341,42.4833722 6.57558112,42.0943575 6.74847912,41.6621125 C6.92137712,41.2298675 7.15910831,40.7760171 7.46167982,40.3005476 C8.62874134,38.3986695 9.80659131,36.4535962 10.9952651,34.4652691 C12.1839389,32.4769421 13.3509829,30.4994509 14.4964321,28.5327361 C15.6418814,26.5660213 16.7548956,24.6425599 17.8355081,22.7622941 C18.9161206,20.8820283 19.9102692,19.0774325 20.8179838,17.3484524 C21.0341063,16.9594319 20.9260466,16.7649246 20.4938016,16.7649246 L18.3541995,16.7649246 Z M42.6030232,33.687232 C41.8682067,34.6813955 40.9713118,35.5782905 39.9123115,36.3779437 C38.8533112,37.177597 37.6538493,37.5774176 36.3138898,37.5774176 C35.5790733,37.5774176 34.8550738,37.3937163 34.1418695,37.026308 C33.4286652,36.6588998 32.8559492,36.1077956 32.4237042,35.3729791 C32.1211327,36.0645711 31.732118,36.8534064 31.2566485,37.7395087 C30.781179,38.625611 30.2192689,39.5116999 29.5709014,40.3978022 C28.9225339,41.2839045 28.1985344,42.0943517 27.3988811,42.8291682 C26.5992278,43.5639847 25.7455567,44.1691187 24.8378422,44.6445882 C24.0598012,44.9903842 23.4114434,45.1632796 22.8927494,45.1632796 C21.3366674,45.1632796 20.5586381,44.471698 20.5586381,43.0885139 C20.5586381,42.3104729 20.6991156,41.5108316 20.9800748,40.6895661 C21.2610341,39.8683006 21.6176309,39.0686593 22.0498759,38.2906183 C22.4821209,37.5125773 22.9467773,36.7777718 23.4438591,36.0861798 C23.9409408,35.3945878 24.4055972,34.8326777 24.8378422,34.4004327 C25.7455567,33.4062692 26.7829292,32.5634041 27.9499907,31.8718121 C29.1170522,31.1802201 30.370544,30.7695935 31.7105035,30.63992 C31.7969525,30.294124 31.926624,29.8943033 32.099522,29.4404461 C32.2724201,28.9865888 32.574987,28.7164397 33.007232,28.6299907 L33.6555963,28.5003179 C33.8717188,28.4570934 34.0662261,28.3922576 34.2391241,28.3058086 C34.3687976,28.2193596 34.4984692,28.2085536 34.6281427,28.2733904 C34.7578162,28.3382271 34.7794281,28.4570927 34.6929791,28.6299907 C34.3904076,29.1054602 34.1634824,29.7105942 34.0121966,30.4454107 C33.8609109,31.1802272 33.7852691,31.9798685 33.7852691,32.8443585 C33.7852691,34.0546445 34.0121944,35.0487931 34.4660516,35.8268341 C34.9199089,36.6048751 35.7087442,36.9938898 36.8325812,36.9938898 C37.9564182,36.9938898 38.9721788,36.6264871 39.8798933,35.8916705 C40.7876078,35.156854 41.5440252,34.3572128 42.1491682,33.4927227 C42.2356172,33.2766002 42.3760947,33.2117645 42.570605,33.2982135 C42.7651152,33.3846625 42.7759212,33.514334 42.6030232,33.687232 Z M31.9050128,34.141087 C31.8185638,33.7520665 31.753728,33.2982161 31.7105035,32.779522 C31.667279,32.260828 31.6456671,31.7637537 31.6456671,31.2882842 C31.6456671,31.0721617 31.5592194,30.9641021 31.3863214,30.9641021 C30.9108518,30.9641021 30.4137775,31.1261915 29.8950835,31.4503753 C29.3763895,31.7745591 28.8577033,32.2067976 28.3390093,32.7471038 C27.8203153,33.2874101 27.301629,33.90335 26.782935,34.594942 C26.264241,35.286534 25.7887787,35.9997276 25.3565336,36.7345441 C24.7946151,37.6854831 24.2867349,38.7120496 23.8328776,39.8142744 C23.3790204,40.9164991 23.1737071,41.9646776 23.2169316,42.9588411 C23.2169316,43.2614126 23.2709614,43.5423676 23.3790226,43.8017146 C23.4870839,44.0610616 23.735621,44.1907332 24.1246415,44.1907332 C24.859458,44.1907332 25.6590993,43.7801066 26.5235893,42.9588411 C27.3880793,42.1375756 28.2093325,41.1758448 28.9873736,40.0736201 C29.7654146,38.9713953 30.4245783,37.8583811 30.9648846,36.7345441 C31.5051908,35.6107071 31.8185638,34.74623 31.9050128,34.141087 Z M54.2087436,60.7240221 L54.4032529,60.5943492 C54.9219469,60.8536962 55.5054689,61.0482035 56.1538364,61.177877 C56.8022039,61.3075505 57.4289498,61.3723863 58.0340928,61.3723863 C59.5037258,61.3723863 60.9517249,60.9725657 62.3781334,60.1729124 C63.8045419,59.3732592 65.1768993,58.3466927 66.4952465,57.0931821 C67.8135938,55.8396716 69.0670855,54.4024785 70.2557593,52.7815598 C71.4444331,51.160641 72.5466413,49.5505525 73.5624171,47.9512459 C74.5781928,46.3519394 75.4858937,44.8066867 76.285547,43.3154414 C77.0852003,41.8241961 77.7659759,40.5598985 78.3278944,39.5225104 C78.3278944,39.1767144 78.1982229,39.1334906 77.9388759,39.3928376 C77.5498554,39.7386336 76.9123036,40.2573198 76.0262013,40.9489118 C75.140099,41.6405039 74.0811146,42.3212795 72.8492164,42.9912593 C71.6173181,43.6612391 70.2341548,44.255567 68.699685,44.774261 C67.1652153,45.292955 65.5551268,45.5522982 63.8693712,45.5522982 C60.7139827,45.5522982 58.3258648,44.8931344 56.7049461,43.5747871 C55.0840273,42.2564399 54.2735801,40.451844 54.2735801,38.1609455 C54.2735801,37.253231 54.5329232,35.9132915 55.0516172,34.141087 C55.5703112,32.3688825 56.4347882,30.467033 57.6450743,28.4354814 C58.8553603,26.4039299 60.4438369,24.4264387 62.4105516,22.5029484 C64.3772664,20.5794581 66.8086081,19.0125934 69.7046497,17.8023074 C71.4336297,17.1107154 73.1517778,16.635253 74.8591456,16.375906 C76.5665134,16.116559 78.133378,15.9868875 79.5597866,15.9868875 C80.2946031,15.9868875 81.0942443,16.0301113 81.9587344,16.1165603 C82.8232244,16.2030093 83.6660895,16.3434868 84.487355,16.5379971 C85.3086205,16.7325074 86.0650379,17.0026564 86.7566299,17.3484524 C87.448222,17.6942484 87.9885201,18.104875 88.3775406,18.5803446 C88.2046426,19.3151611 87.9344935,20.212056 87.5670853,21.2710563 C87.199677,22.3300565 86.8430802,23.2485634 86.4972842,24.0266044 L86.0434293,24.1562773 L85.9785928,23.961768 C86.0650418,23.702421 86.1298776,23.4430779 86.1731021,23.1837309 C86.2163266,22.9243839 86.2379385,22.6434288 86.2379385,22.3408573 C86.2379385,21.5628163 86.0110133,20.8280108 85.557156,20.1364188 C85.1032988,19.4448268 84.4873589,18.8396929 83.7093179,18.3209988 C82.9312769,17.8023048 82.023576,17.4024842 80.986188,17.1215249 C79.9487999,16.8405657 78.8465917,16.7000882 77.6795302,16.7000882 C75.4750806,16.7000882 73.4219477,17.1647446 71.5200696,18.0940713 C69.6181916,19.0233981 67.8892375,20.2660839 66.3331555,21.8221659 C65.3822164,22.7298804 64.3664559,23.9077304 63.2858434,25.3557512 C62.2052309,26.8037719 61.2002763,28.3598306 60.2709495,30.0239739 C59.3416228,31.6881172 58.5743994,33.3630415 57.9692564,35.048797 C57.3641134,36.7345525 57.0615464,38.2906112 57.0615464,39.7170197 C57.0615464,41.4459998 57.6450684,42.7643273 58.8121299,43.6720418 C59.9791915,44.5797563 61.6649217,45.0336067 63.8693712,45.0336067 C65.7712493,45.0336067 67.6730988,44.6337861 69.5749768,43.8341328 C71.4768548,43.0344796 73.2166149,42.040331 74.7943092,40.8516572 C76.3720035,39.6629834 77.7443608,38.3446559 78.9114223,36.8966352 C80.0784838,35.4486144 80.899737,34.0762571 81.3752065,32.779522 C81.5481045,32.347277 81.6237463,32.0230981 81.602134,31.8069756 C81.5805218,31.5908531 81.3319846,31.4827935 80.8565151,31.4827935 C80.1216986,31.526018 79.2572215,31.5908538 78.263058,31.6773028 C77.2688945,31.7637518 76.1882982,31.8501995 75.0212367,31.9366485 L74.8267274,31.8718121 L75.0212367,31.1586114 C75.8857267,31.1586114 76.8474574,31.1369994 77.9064577,31.0937749 C78.9654579,31.0505504 80.0244423,30.9965206 81.0834426,30.9316839 C82.1424429,30.8668471 83.1582034,30.7587875 84.1307547,30.6075017 C85.1033059,30.456216 85.9785889,30.2941265 86.7566299,30.1212285 C86.9295279,30.250902 86.9295279,30.4454094 86.7566299,30.7047564 C86.0650379,30.8776544 85.5895756,31.0829677 85.3302286,31.3207024 C85.0708815,31.5584372 84.7899265,31.9798698 84.487355,32.5850128 C83.6660895,34.1843193 82.7259707,36.0105271 81.6669704,38.0636908 C80.6079702,40.1168546 79.5057619,42.1807936 78.3603127,44.2555696 C77.2148634,46.3303456 76.0586253,48.286225 74.8915638,50.1232663 C73.7245023,51.9603075 72.6222941,53.4623364 71.584906,54.6293979 C71.152661,55.1480919 70.5367211,55.8180616 69.7370679,56.6393272 C68.9374146,57.4605927 67.9756839,58.249428 66.8518469,59.0058567 C65.7280099,59.7622855 64.4312943,60.4214493 62.9616613,60.9833678 C61.4920282,61.5452863 59.8495218,61.8262413 58.0340928,61.8262413 C57.4289498,61.8262413 56.8238159,61.7830175 56.2186729,61.6965685 C55.6135299,61.6101195 54.9651721,61.437224 54.2735801,61.177877 L54.2087436,60.7240221 Z M108.671342,33.687232 C107.936526,34.6813955 107.039631,35.5782905 105.980631,36.3779437 C104.92163,37.177597 103.722168,37.5774176 102.382209,37.5774176 C101.647392,37.5774176 100.923393,37.3937163 100.210189,37.026308 C99.4969843,36.6588998 98.9242682,36.1077956 98.4920232,35.3729791 C98.1894517,36.0645711 97.800437,36.8534064 97.3249675,37.7395087 C96.849498,38.625611 96.2875879,39.5116999 95.6392204,40.3978022 C94.9908529,41.2839045 94.2668534,42.0943517 93.4672001,42.8291682 C92.6675469,43.5639847 91.8138758,44.1691187 90.9061613,44.6445882 C90.1281203,44.9903842 89.4797625,45.1632796 88.9610685,45.1632796 C87.4049864,45.1632796 86.6269571,44.471698 86.6269571,43.0885139 C86.6269571,42.3104729 86.7674346,41.5108316 87.0483939,40.6895661 C87.3293531,39.8683006 87.6859499,39.0686593 88.1181949,38.2906183 C88.5504399,37.5125773 89.0150963,36.7777718 89.5121781,36.0861798 C90.0092598,35.3945878 90.4739163,34.8326777 90.9061613,34.4004327 C91.8138758,33.4062692 92.8512482,32.5634041 94.0183098,31.8718121 C95.1853713,31.1802201 96.438863,30.7695935 97.7788225,30.63992 C97.8652715,30.294124 97.9949431,29.8943033 98.1678411,29.4404461 C98.3407391,28.9865888 98.6433061,28.7164397 99.0755511,28.6299907 L99.7239153,28.5003179 C99.9400378,28.4570934 100.134545,28.3922576 100.307443,28.3058086 C100.437117,28.2193596 100.566788,28.2085536 100.696462,28.2733904 C100.826135,28.3382271 100.847747,28.4570927 100.761298,28.6299907 C100.458727,29.1054602 100.231801,29.7105942 100.080516,30.4454107 C99.9292299,31.1802272 99.8535882,31.9798685 99.8535882,32.8443585 C99.8535882,34.0546445 100.080513,35.0487931 100.534371,35.8268341 C100.988228,36.6048751 101.777063,36.9938898 102.9009,36.9938898 C104.024737,36.9938898 105.040498,36.6264871 105.948212,35.8916705 C106.855927,35.156854 107.612344,34.3572128 108.217487,33.4927227 C108.303936,33.2766002 108.444414,33.2117645 108.638924,33.2982135 C108.833434,33.3846625 108.84424,33.514334 108.671342,33.687232 Z M97.9733318,34.141087 C97.8868828,33.7520665 97.822047,33.2982161 97.7788225,32.779522 C97.735598,32.260828 97.7139861,31.7637537 97.7139861,31.2882842 C97.7139861,31.0721617 97.6275384,30.9641021 97.4546404,30.9641021 C96.9791709,30.9641021 96.4820966,31.1261915 95.9634026,31.4503753 C95.4447086,31.7745591 94.9260223,32.2067976 94.4073283,32.7471038 C93.8886343,33.2874101 93.3699481,33.90335 92.8512541,34.594942 C92.3325601,35.286534 91.8570977,35.9997276 91.4248527,36.7345441 C90.8629342,37.6854831 90.3550539,38.7120496 89.9011967,39.8142744 C89.4473394,40.9164991 89.2420261,41.9646776 89.2852506,42.9588411 C89.2852506,43.2614126 89.3392804,43.5423676 89.4473417,43.8017146 C89.5554029,44.0610616 89.8039401,44.1907332 90.1929606,44.1907332 C90.9277771,44.1907332 91.7274184,43.7801066 92.5919084,42.9588411 C93.4563984,42.1375756 94.2776516,41.1758448 95.0556926,40.0736201 C95.8337336,38.9713953 96.4928974,37.8583811 97.0332036,36.7345441 C97.5735099,35.6107071 97.8868828,34.74623 97.9733318,34.141087 Z M144.072031,1.5932007 C144.072031,1.8525477 143.94236,2.11189081 143.683013,2.37123782 C143.423666,2.63058482 143.25077,2.99798757 143.164321,3.47345708 C143.077872,3.77602858 142.926589,3.92731207 142.710466,3.92731207 C142.580793,3.92731207 142.451121,3.89489418 142.321448,3.83005743 C142.191774,3.76522067 142.029685,3.68957893 141.835175,3.60312993 C141.640664,3.51668093 141.402933,3.44103919 141.121974,3.37620244 C140.841015,3.31136569 140.441194,3.2789478 139.9225,3.2789478 C139.187684,3.2789478 138.452878,3.37620146 137.718062,3.57071172 C136.983245,3.76522197 136.313275,4.05698297 135.708132,4.44600348 C134.497846,5.22404449 133.190325,6.32625273 131.785528,7.75266125 C130.380732,9.17906978 129.094823,10.7351285 127.927761,12.420884 C125.031719,16.5704361 122.492318,20.4497768 120.309481,24.0590226 C118.126644,27.6682684 116.300436,30.8992514 114.830803,33.7520685 C113.36117,36.6048855 112.258962,39.0362272 111.524145,41.0461665 C110.789329,43.0561058 110.421926,44.5365227 110.421926,45.4874617 C110.421926,46.2222782 110.584015,46.8274122 110.908199,47.3028817 C111.232383,47.7783512 111.761875,48.0160824 112.496691,48.0160824 C113.663753,48.0160824 114.776767,47.6486796 115.835767,46.9138631 C116.894768,46.1790466 117.899722,45.2605397 118.850661,44.158315 C119.8016,43.0560902 120.666077,41.8350164 121.444118,40.4950569 C122.222159,39.1550973 122.892129,37.9016056 123.454048,36.7345441 C123.540497,36.5616461 123.680974,36.4968103 123.875484,36.5400348 C124.069995,36.5832593 124.059189,36.7561547 123.843066,37.0587262 C123.065025,38.6148083 122.232966,40.0952252 121.346864,41.5000215 C120.460761,42.9048177 119.531449,44.1366975 118.558897,45.1956978 C117.586346,46.2546981 116.570586,47.0867572 115.511585,47.6919002 C114.452585,48.2970433 113.404407,48.5996102 112.367019,48.5996102 C111.199957,48.5996102 110.33548,48.2862373 109.773562,47.659482 C109.211643,47.0327268 108.930688,46.2222795 108.930688,45.228116 C108.930688,44.190728 109.136001,43.0777138 109.546634,41.88904 C109.957267,40.7003663 110.594819,39.2415612 111.459309,37.5125812 C110.249023,38.9822142 109.190038,40.214094 108.282324,41.2082575 C107.374609,42.2024211 106.574968,42.9804504 105.883376,43.5423689 C105.191784,44.1042874 104.597456,44.5041081 104.100374,44.7418428 C103.603292,44.9795776 103.160248,45.0984432 102.771227,45.0984432 C102.166084,45.0984432 101.755458,44.9363537 101.539335,44.61217 C101.323213,44.2879862 101.215153,43.8665536 101.215153,43.3478596 C101.215153,42.9588391 101.323213,42.4509589 101.539335,41.8242036 C101.755458,41.1974483 102.058025,40.5815084 102.447045,39.9763654 C104.046352,37.3828954 105.829336,35.2649266 107.79605,33.6223956 C109.762765,31.9798646 112.194107,30.8992683 115.090149,30.3805743 C117.164925,26.7497162 119.153222,23.4863153 121.0551,20.5902738 C122.956978,17.6942322 125.031723,14.8630699 127.279397,12.0967019 C129.13805,9.76257882 130.98587,7.70944583 132.822911,5.9372413 C134.659953,4.16503677 136.550996,2.82509735 138.496099,1.91738283 C139.965732,1.22579082 141.240835,0.88 142.321448,0.88 C142.840142,0.88 143.261574,0.944835779 143.585758,1.07450928 C143.909942,1.20418278 144.072031,1.37707819 144.072031,1.5932007 Z M114.571457,31.3531207 C112.928926,31.3963452 111.664628,31.7097181 110.778526,32.2932488 C109.892424,32.8767796 109.103589,33.6007791 108.411997,34.4652691 C106.769466,36.4968207 105.602421,38.2365807 104.910829,39.6846015 C104.219237,41.1326223 103.873447,42.2024126 103.873447,42.8940046 C103.873447,43.1101272 103.959894,43.2614106 104.132792,43.3478596 C104.30569,43.4343086 104.435362,43.4775325 104.521811,43.4775325 C104.824382,43.4775325 105.375487,43.1533536 106.17514,42.5049861 C106.974793,41.8566186 107.860882,40.9813356 108.833433,39.8791108 C109.805985,38.776886 110.810939,37.4909764 111.848327,36.0213434 C112.885715,34.5517104 113.793416,32.9956517 114.571457,31.3531207 Z M168.645037,3.01960209 C168.645037,3.6679696 168.623425,4.10020812 168.580201,4.31633063 C168.536976,4.53245313 168.450529,4.57567698 168.320855,4.44600348 C168.104733,4.22988098 167.812972,3.98134383 167.445563,3.70038457 C167.078155,3.41942532 166.440603,3.2789478 165.532889,3.2789478 C164.754848,3.2789478 164.041654,3.32217165 163.393287,3.40862065 C162.744919,3.49506965 162.085755,3.66796506 161.415776,3.92731207 C160.745796,4.18665907 160.043408,4.54325585 159.308592,4.99711311 C158.573775,5.45097037 157.752522,6.06691026 156.844807,6.84495128 C155.548072,7.9255638 154.143297,9.51404037 152.63044,11.6104287 C151.117582,13.7068169 149.593941,15.9976811 148.059472,18.4830899 C146.525002,20.9684987 145.066197,23.4970941 143.683013,26.0689519 C142.299829,28.6408097 141.089561,30.9424798 140.052173,32.9740313 C139.706377,33.6656233 139.328168,34.4760706 138.917535,35.4053973 C138.506903,36.3347241 138.1395,37.2640369 137.815316,38.1933637 C137.491132,39.1226905 137.220983,39.9871675 137.004861,40.7868208 C136.788738,41.586474 136.680679,42.180802 136.680679,42.5698225 C136.680679,43.736884 137.069693,44.320406 137.847734,44.320406 C138.323204,44.320406 138.863502,44.0934808 139.468645,43.6396236 C140.073788,43.1857663 140.65731,42.5374085 141.219229,41.6945308 C141.781147,40.851653 142.256609,39.8142805 142.64563,38.5823823 C143.03465,37.350484 143.229158,35.9565147 143.229158,34.4004327 C143.229158,33.8817387 143.19674,33.4603062 143.131903,33.1361224 C143.067066,32.8119386 142.991425,32.5417896 142.904976,32.3256671 C142.904976,32.0663201 143.034647,31.8069769 143.293994,31.5476299 C143.466892,31.3747319 143.683011,31.1694186 143.942358,30.9316839 C144.201706,30.6939491 144.439437,30.5102478 144.655559,30.3805743 C144.785233,30.3805743 144.87168,30.4237981 144.914905,30.5102471 C144.914905,31.3747371 145.076994,32.0987366 145.401178,32.6822674 C145.725362,33.2657982 146.135988,33.7412605 146.63307,34.1086688 C147.130152,34.4760771 147.67045,34.7462261 148.253981,34.9191241 C148.837512,35.0920221 149.388616,35.1784698 149.90731,35.1784698 C150.642126,35.1784698 151.441768,35.0596043 152.306258,34.8218695 C153.170748,34.5841347 154.056837,34.1843141 154.964551,33.6223956 C155.180674,33.4927221 155.321151,33.5035281 155.385988,33.6548138 C155.450825,33.8060996 155.375183,33.9249652 155.15906,34.0114142 C153.775876,34.7462307 152.511579,35.2865288 151.366129,35.6323248 C150.22068,35.9781208 149.15089,36.1510162 148.156726,36.1510162 C147.335461,36.1510162 146.589849,35.9673149 145.91987,35.5999066 C145.24989,35.2324984 144.742009,34.8110658 144.396213,34.3355963 C144.396213,35.9781273 144.126064,37.4693502 143.585758,38.8093098 C143.045452,40.1492693 142.386288,41.2838954 141.608247,42.2132222 C140.830206,43.1425489 139.987341,43.8665485 139.079626,44.3852425 C138.171912,44.9039365 137.350659,45.1632796 136.615842,45.1632796 C135.92425,45.1632796 135.351534,44.9471603 134.897677,44.5149153 C134.44382,44.0826703 134.216894,43.4127006 134.216894,42.5049861 C134.216894,41.8133941 134.368178,40.970529 134.670749,39.9763654 C134.973321,38.9822019 135.35153,37.9772474 135.805387,36.9614716 C136.259244,35.9456958 136.723901,34.9731591 137.19937,34.0438324 C137.67484,33.1145056 138.063854,32.3688942 138.366426,31.8069756 C139.533487,29.6457506 140.786979,27.4413341 142.126939,25.1936601 C143.466898,22.9459861 144.882479,20.7199577 146.373725,18.5155081 C147.86497,16.3110586 149.44264,14.1822839 151.106784,12.1291201 C152.770927,10.0759563 154.532299,8.18491275 156.390952,6.45593272 C156.909646,5.98046321 157.56881,5.41855313 158.368463,4.77018562 C159.168117,4.1218181 160.021788,3.50587821 160.929502,2.92234745 C161.837217,2.33881669 162.755724,1.85254835 163.68505,1.46352784 C164.614377,1.07450734 165.468048,0.88 166.246089,0.88 C167.02413,0.88 167.618458,1.0853133 168.029091,1.49594606 C168.439724,1.90657881 168.645037,2.41445908 168.645037,3.01960209 Z M166.440599,36.9938898 C165.705782,37.9016043 164.830499,38.8417231 163.814723,39.8142744 C162.798948,40.7868256 161.696739,41.6729146 160.508066,42.4725679 C159.319392,43.2722211 158.087512,43.9205789 156.812389,44.4176607 C155.537266,44.9147424 154.272969,45.1632796 153.019458,45.1632796 C150.987907,45.1632796 149.972146,44.2555787 149.972146,42.4401497 C149.972146,41.2298636 150.285519,39.9223421 150.912274,38.5175458 C151.53903,37.1127496 152.349477,35.816034 153.34364,34.6273602 C154.337804,33.4386864 155.429206,32.4445378 156.61788,31.6448846 C157.806554,30.8452313 158.94118,30.4454107 160.021792,30.4454107 C160.626935,30.4454107 161.048368,30.5534703 161.286103,30.7695928 C161.523837,30.9857153 161.642703,31.2666704 161.642703,31.6124664 C161.642703,32.1311604 161.480614,32.6930705 161.15643,33.2982135 C160.832246,33.9033565 160.345978,34.4760725 159.69761,35.0163788 C159.049243,35.556685 158.22799,36.0105355 157.233826,36.3779437 C156.239662,36.745352 155.051007,36.9290534 153.667823,36.9290534 C153.4517,37.3180739 153.213969,37.9340138 152.954622,38.7768915 C152.695275,39.6197693 152.565603,40.4734404 152.565603,41.3379304 C152.565603,43.1101349 153.365245,43.9962239 154.964551,43.9962239 C155.958715,43.9962239 156.985281,43.7584927 158.044281,43.2830232 C159.103282,42.8075537 160.129848,42.2132257 161.124012,41.5000215 C162.118175,40.7868172 163.036682,40.0087879 163.87956,39.1659101 C164.722438,38.3230323 165.424825,37.534197 165.986744,36.7993805 C166.073193,36.7129315 166.170446,36.6913196 166.278508,36.7345441 C166.386569,36.7777686 166.440599,36.8642163 166.440599,36.9938898 Z M159.632774,31.9366485 C159.632774,31.37473 159.351819,31.0937749 158.7899,31.0937749 C158.357655,31.0937749 157.914611,31.2558644 157.460754,31.5800481 C157.006896,31.9042319 156.563852,32.3256645 156.131607,32.8443585 C155.699362,33.3630525 155.288735,33.9249626 154.899715,34.5301056 C154.510694,35.1352486 154.186515,35.7187706 153.927168,36.2806891 C154.013617,36.3239136 154.164901,36.3563315 154.381023,36.3779437 C154.597146,36.399556 154.770041,36.410362 154.899715,36.410362 C156.153225,36.410362 157.255433,35.9673175 158.206372,35.0812152 C159.157311,34.1951129 159.632774,33.1469345 159.632774,31.9366485 Z M227.516513,38.3554548 C227.30039,39.4360673 226.68445,40.4734397 225.668675,41.4676033 C224.652899,42.4617668 223.464243,43.3478557 222.102671,44.1258968 C220.741099,44.9039378 219.2931,45.5198777 217.758631,45.9737349 C216.224161,46.4275922 214.830192,46.6545174 213.576681,46.6545174 C211.242558,46.6545174 209.459574,46.2871147 208.227676,45.5522982 C206.995778,44.8174816 206.379838,43.4775422 206.379838,41.5324397 C206.379838,41.4027662 206.390644,41.2514827 206.412256,41.0785847 C206.433868,40.9056867 206.466286,40.7111794 206.50951,40.4950569 C205.428898,40.9705264 204.32669,41.4567947 203.202853,41.9538765 C202.079016,42.4509582 201.009225,42.8940027 199.99345,43.2830232 C198.977674,43.6720437 198.091585,44.0070286 197.335156,44.2879878 C196.578727,44.5689471 196.049235,44.7310365 195.746664,44.774261 C195.530541,44.6445875 195.336034,44.4824981 195.163136,44.2879878 C194.990238,44.0934776 194.860566,43.8233285 194.774117,43.4775325 C194.774117,43.347859 194.828147,43.1749636 194.936208,42.9588411 C195.04427,42.7427186 195.292807,42.332092 195.681827,41.726949 C196.28697,40.7327854 196.892104,39.695413 197.497247,38.6148005 C198.10239,37.534188 198.642688,36.4752036 199.118158,35.4378156 C199.204607,35.221693 199.247831,35.0271857 199.247831,34.8542877 C199.247831,34.6381652 199.161383,34.5733294 198.988485,34.6597784 C198.642689,34.8326764 198.015943,35.3189448 197.108229,36.118598 C196.200514,36.9182513 195.249589,37.8367582 194.255426,38.8741462 C193.261262,39.9115342 192.310338,40.9921305 191.402623,42.1159675 C190.494908,43.2398045 189.868163,44.1907293 189.522367,44.9687703 C189.435918,45.1848928 189.360276,45.3685942 189.295439,45.5198799 C189.230602,45.6711657 189.133349,45.8332551 189.003675,46.0061531 C188.960451,46.0926021 188.830779,46.1574379 188.614657,46.2006624 C188.398534,46.2438869 188.193221,46.2763048 187.998711,46.2979171 C187.8042,46.3195293 187.631305,46.3195293 187.480019,46.2979171 C187.328733,46.2763048 187.274704,46.222275 187.317928,46.135826 C187.404377,45.9197035 187.577273,45.5523007 187.83662,45.0336067 C188.095967,44.5149127 188.398533,43.9313907 188.74433,43.2830232 C188.009513,43.5855947 187.02617,43.9097736 185.794272,44.2555696 C184.562374,44.6013656 183.384524,44.774261 182.260687,44.774261 C181.828442,44.774261 181.385397,44.7418431 180.93154,44.6770064 C180.477683,44.6121696 180.05625,44.50411 179.66723,44.3528243 C179.278209,44.2015385 178.964836,43.9746133 178.727102,43.6720418 C178.489367,43.3694703 178.370501,42.9588437 178.370501,42.4401497 C178.370501,41.9214557 178.435337,41.4351873 178.56501,40.9813301 C178.694684,40.5274728 178.954027,39.9223389 179.343048,39.1659101 C179.732068,38.4094813 180.293978,37.4261387 181.028795,36.2158527 C181.763611,35.0055667 182.714536,33.4062841 183.881597,31.4179571 C183.362903,31.4179571 182.692934,31.439569 181.871668,31.4827935 C181.050403,31.526018 180.423657,31.5908538 179.991412,31.6773028 C179.732065,31.6773028 179.634811,31.5584372 179.699648,31.3207024 C179.764485,31.0829677 179.904962,30.9641021 180.121085,30.9641021 C180.769452,30.9641021 181.41781,30.9532961 182.066178,30.9316839 C182.714545,30.9100716 183.406127,30.8992657 184.140943,30.8992657 C184.702862,30.0347757 185.29719,29.0190151 185.923945,27.8519536 C186.5507,26.6848921 187.123416,25.6042958 187.64211,24.6101323 C187.771784,24.5669078 187.955485,24.502072 188.19322,24.415623 C188.430955,24.329174 188.679492,24.2319203 188.938839,24.1238591 C189.198186,24.0157978 189.446723,23.9185441 189.684458,23.8320951 C189.922192,23.7456461 190.084282,23.7024223 190.170731,23.7024223 C190.213955,23.7024223 190.105896,23.9401535 189.846549,24.415623 C189.673651,24.67497 189.43592,25.0639847 189.133348,25.5826787 C188.830777,26.1013727 188.506598,26.6632827 188.160802,27.2684258 C187.815006,27.8735688 187.469215,28.4895087 187.123419,29.1162639 C186.777623,29.7430192 186.475056,30.3157352 186.215709,30.8344292 C186.691178,30.8344292 187.231477,30.8128173 187.83662,30.7695928 C188.441763,30.7263683 189.057702,30.6939504 189.684458,30.6723382 C190.311213,30.6507259 190.916347,30.629114 191.499878,30.6075017 C192.083408,30.5858895 192.569677,30.5750835 192.958697,30.5750835 C193.304493,30.5750835 193.71512,30.5966955 194.190589,30.63992 C194.666059,30.6831445 195.184745,30.8560399 195.746664,31.1586114 C198.729154,26.3174673 201.419839,22.0274999 203.818799,18.2885806 C206.217759,14.5496613 208.465399,11.3943201 210.561787,8.8224623 C212.658175,6.2506045 214.689697,4.30553115 216.656411,2.98718388 C218.623126,1.6688366 220.643841,1.00967285 222.718617,1.00967285 C223.280536,1.00967285 223.766804,1.13934441 224.177437,1.39869142 C224.58807,1.65803842 224.793383,2.1335008 224.793383,2.82509281 C224.793383,3.04121531 224.760965,3.28975246 224.696128,3.57071172 C224.631291,3.85167097 224.534038,4.10020812 224.404364,4.31633063 C224.188242,4.01375912 223.842451,3.74361004 223.366981,3.50587529 C222.891512,3.26814054 222.243154,3.14927494 221.421889,3.14927494 C220.427725,3.14927494 219.444383,3.2789465 218.471831,3.5382935 C217.49928,3.79764051 216.483519,4.29471481 215.424519,5.02953132 C214.365519,5.76434784 213.220087,6.78010837 211.988189,8.07684339 C210.75629,9.37357841 209.394739,11.0809206 207.903494,13.1989211 C206.412248,15.3169217 204.74813,17.8887409 202.911089,20.9144559 C201.074048,23.940171 199.010109,27.5277507 196.71921,31.6773028 C196.978557,32.0663233 197.108229,32.3905022 197.108229,32.6498492 C197.02178,32.7795227 196.816466,32.9091943 196.492283,33.0388678 L195.681827,33.3630499 C194.428317,35.4810504 193.423362,37.2208105 192.666933,38.5823823 C191.910505,39.943954 191.294565,41.0785802 190.819095,41.9862947 C192.288728,40.3437636 193.563832,38.9714063 194.644444,37.8691816 C195.725057,36.7669568 196.65437,35.8808678 197.432411,35.2108881 C198.210452,34.5409083 198.848004,34.05464 199.345085,33.7520685 C199.842167,33.4494969 200.220376,33.2982135 200.479723,33.2982135 C200.695845,33.2982135 200.933576,33.3954671 201.192923,33.5899774 C201.45227,33.7844876 201.581942,33.9465771 201.581942,34.0762506 C201.581942,34.2059241 201.549524,34.3464016 201.484687,34.4976874 C201.419851,34.6489731 201.365821,34.7678387 201.322596,34.8542877 C200.9768,35.5458797 200.566174,36.345521 200.090704,37.2532355 C199.615235,38.16095 199.17219,39.036233 198.761557,39.8791108 C198.350925,40.7219886 198.005134,41.4567941 197.724175,42.0835493 C197.443215,42.7103046 197.302738,43.0885133 197.302738,43.2181868 C197.302738,43.4775338 197.410797,43.6072053 197.62692,43.6072053 C197.843042,43.6072053 198.242863,43.4991457 198.826394,43.2830232 C199.409925,43.0669007 200.112312,42.7967516 200.933578,42.4725679 C201.754843,42.1483841 202.662544,41.7701754 203.656708,41.3379304 C204.650871,40.9056854 205.623408,40.4734469 206.574347,40.0412019 C206.920143,38.7876913 207.471247,37.5774235 208.227676,36.410362 C208.984105,35.2433004 209.82697,34.2167339 210.756296,33.3306317 C211.685623,32.4445294 212.65816,31.7313358 213.673936,31.1910296 C214.689711,30.6507233 215.651442,30.3805743 216.559157,30.3805743 C217.55332,30.3805743 218.244902,30.5966935 218.633922,31.0289385 C219.022943,31.4611835 219.32551,32.0014817 219.541632,32.6498492 C219.541632,32.8227472 219.476797,32.9740307 219.347123,33.1037042 C218.828429,33.5791737 218.169265,34.087054 217.369612,34.6273602 C216.569959,35.1676665 215.705482,35.7079646 214.776155,36.2482709 C213.846828,36.7885771 212.895903,37.3180693 211.923352,37.8367633 C210.950801,38.3554574 210.032294,38.8525317 209.167804,39.3280012 C208.994906,39.9763687 208.908458,40.7760099 208.908458,41.726949 C208.908458,43.1533575 209.43795,44.1907299 210.496951,44.8390975 C211.555951,45.487465 212.777025,45.8116439 214.160209,45.8116439 C216.19176,45.8116439 218.017968,45.4982709 219.638887,44.8715157 C221.259806,44.2447604 222.621357,43.4559251 223.723582,42.5049861 C224.825807,41.5540471 225.668672,40.5166746 226.252202,39.3928376 C226.835733,38.2690006 227.08427,37.1884043 226.997821,36.1510162 C226.997821,36.0645672 227.030239,36.0105374 227.095076,35.9889252 C227.159913,35.9673129 227.213943,36.0213427 227.257167,36.1510162 C227.257167,36.2806898 227.300391,36.5940627 227.38684,37.0911444 C227.473289,37.5882262 227.516513,38.0096588 227.516513,38.3554548 Z M217.142684,33.233377 C217.142684,32.7579075 216.926565,32.314863 216.49432,31.9042303 C216.062075,31.4935975 215.521777,31.2882842 214.87341,31.2882842 C214.570838,31.2882842 214.171017,31.4287617 213.673936,31.709721 C213.176854,31.9906803 212.668974,32.4229188 212.15028,33.0064495 C211.631586,33.5899803 211.112899,34.3572037 210.594205,35.3081427 C210.075511,36.2590817 209.621661,37.4261257 209.23264,38.8093098 C209.924232,38.4635137 210.659038,38.085305 211.437079,37.6746723 C212.21512,37.2640395 212.960731,36.831801 213.673936,36.3779437 C214.38714,35.9240865 215.035498,35.491848 215.619028,35.0812152 C216.202559,34.6705824 216.623992,34.2923737 216.883339,33.9465777 C217.056237,33.7304552 217.142684,33.492724 217.142684,33.233377 Z M194.709281,32.7146856 C194.190587,32.0230936 193.585453,31.5800491 192.893861,31.3855389 C192.202269,31.1910286 191.532299,31.0937749 190.883932,31.0937749 C190.149115,31.0937749 189.317056,31.1153869 188.387729,31.1586114 C187.458402,31.2018359 186.626343,31.2450597 185.891527,31.2882842 C185.588955,31.8069782 185.167523,32.5525897 184.627216,33.525141 C184.08691,34.4976922 183.546612,35.5242587 183.006306,36.6048712 C182.465999,37.6854838 182.001343,38.7444681 181.612323,39.7818562 C181.223302,40.8192442 181.028795,41.6621093 181.028795,42.3104768 C181.028795,43.0452933 181.298944,43.5315617 181.83925,43.7692964 C182.379556,44.0070312 182.93066,44.1258968 183.492579,44.1258968 C184.357069,44.1258968 185.307994,43.9854192 186.345382,43.70446 C187.38277,43.4235007 188.268859,43.1101278 189.003675,42.7643318 C189.392696,42.0295153 189.846546,41.1866502 190.36524,40.2357111 C190.883934,39.2847721 191.424232,38.3338474 191.986151,37.3829084 C192.548069,36.4319693 193.066756,35.5350744 193.542225,34.6921966 C194.017695,33.8493189 194.406709,33.1901551 194.709281,32.7146856 Z M244.373984,60.7240221 L244.568493,60.5943492 C245.087187,60.8536962 245.670709,61.0482035 246.319077,61.177877 C246.967444,61.3075505 247.59419,61.3723863 248.199333,61.3723863 C249.668966,61.3723863 251.116965,60.9725657 252.543374,60.1729124 C253.969782,59.3732592 255.342139,58.3466927 256.660487,57.0931821 C257.978834,55.8396716 259.232326,54.4024785 260.420999,52.7815598 C261.609673,51.160641 262.711881,49.5505525 263.727657,47.9512459 C264.743433,46.3519394 265.651134,44.8066867 266.450787,43.3154414 C267.25044,41.8241961 267.931216,40.5598985 268.493135,39.5225104 C268.493135,39.1767144 268.363463,39.1334906 268.104116,39.3928376 C267.715096,39.7386336 267.077544,40.2573198 266.191441,40.9489118 C265.305339,41.6405039 264.246355,42.3212795 263.014457,42.9912593 C261.782558,43.6612391 260.399395,44.255567 258.864925,44.774261 C257.330455,45.292955 255.720367,45.5522982 254.034611,45.5522982 C250.879223,45.5522982 248.491105,44.8931344 246.870186,43.5747871 C245.249267,42.2564399 244.43882,40.451844 244.43882,38.1609455 C244.43882,37.253231 244.698163,35.9132915 245.216857,34.141087 C245.735551,32.3688825 246.600028,30.467033 247.810314,28.4354814 C249.0206,26.4039299 250.609077,24.4264387 252.575792,22.5029484 C254.542507,20.5794581 256.973848,19.0125934 259.86989,17.8023074 C261.59887,17.1107154 263.317018,16.635253 265.024386,16.375906 C266.731754,16.116559 268.298618,15.9868875 269.725027,15.9868875 C270.459843,15.9868875 271.259485,16.0301113 272.123975,16.1165603 C272.988465,16.2030093 273.83133,16.3434868 274.652595,16.5379971 C275.473861,16.7325074 276.230278,17.0026564 276.92187,17.3484524 C277.613462,17.6942484 278.15376,18.104875 278.542781,18.5803446 C278.369883,19.3151611 278.099734,20.212056 277.732325,21.2710563 C277.364917,22.3300565 277.00832,23.2485634 276.662524,24.0266044 L276.208669,24.1562773 L276.143833,23.961768 C276.230282,23.702421 276.295118,23.4430779 276.338342,23.1837309 C276.381567,22.9243839 276.403179,22.6434288 276.403179,22.3408573 C276.403179,21.5628163 276.176253,20.8280108 275.722396,20.1364188 C275.268539,19.4448268 274.652599,18.8396929 273.874558,18.3209988 C273.096517,17.8023048 272.188816,17.4024842 271.151428,17.1215249 C270.11404,16.8405657 269.011832,16.7000882 267.84477,16.7000882 C265.640321,16.7000882 263.587188,17.1647446 261.68531,18.0940713 C259.783432,19.0233981 258.054478,20.2660839 256.498396,21.8221659 C255.547457,22.7298804 254.531696,23.9077304 253.451084,25.3557512 C252.370471,26.8037719 251.365516,28.3598306 250.43619,30.0239739 C249.506863,31.6881172 248.73964,33.3630415 248.134497,35.048797 C247.529354,36.7345525 247.226787,38.2906112 247.226787,39.7170197 C247.226787,41.4459998 247.810309,42.7643273 248.97737,43.6720418 C250.144432,44.5797563 251.830162,45.0336067 254.034611,45.0336067 C255.936489,45.0336067 257.838339,44.6337861 259.740217,43.8341328 C261.642095,43.0344796 263.381855,42.040331 264.959549,40.8516572 C266.537244,39.6629834 267.909601,38.3446559 269.076662,36.8966352 C270.243724,35.4486144 271.064977,34.0762571 271.540447,32.779522 C271.713345,32.347277 271.788986,32.0230981 271.767374,31.8069756 C271.745762,31.5908531 271.497225,31.4827935 271.021755,31.4827935 C270.286939,31.526018 269.422462,31.5908538 268.428298,31.6773028 C267.434135,31.7637518 266.353538,31.8501995 265.186477,31.9366485 L264.991968,31.8718121 L265.186477,31.1586114 C266.050967,31.1586114 267.012698,31.1369994 268.071698,31.0937749 C269.130698,31.0505504 270.189682,30.9965206 271.248683,30.9316839 C272.307683,30.8668471 273.323444,30.7587875 274.295995,30.6075017 C275.268546,30.456216 276.143829,30.2941265 276.92187,30.1212285 C277.094768,30.250902 277.094768,30.4454094 276.92187,30.7047564 C276.230278,30.8776544 275.754816,31.0829677 275.495469,31.3207024 C275.236122,31.5584372 274.955167,31.9798698 274.652595,32.5850128 C273.83133,34.1843193 272.891211,36.0105271 271.832211,38.0636908 C270.77321,40.1168546 269.671002,42.1807936 268.525553,44.2555696 C267.380104,46.3303456 266.223866,48.286225 265.056804,50.1232663 C263.889742,51.9603075 262.787534,53.4623364 261.750146,54.6293979 C261.317901,55.1480919 260.701961,55.8180616 259.902308,56.6393272 C259.102655,57.4605927 258.140924,58.249428 257.017087,59.0058567 C255.89325,59.7622855 254.596534,60.4214493 253.126901,60.9833678 C251.657268,61.5452863 250.014762,61.8262413 248.199333,61.8262413 C247.59419,61.8262413 246.989056,61.7830175 246.383913,61.6965685 C245.77877,61.6101195 245.130412,61.437224 244.43882,61.177877 L244.373984,60.7240221 Z M308.043355,2.43607425 C308.043355,3.04121726 307.805624,3.92730623 307.330154,5.09436775 C306.854685,6.26142927 306.173909,7.61217466 305.287807,9.14664443 C304.401705,10.6811142 303.321108,12.3236206 302.045986,14.0742129 C300.770863,15.8248052 299.322864,17.5645652 297.701945,19.2935452 C296.081026,21.0225253 294.298042,22.6758376 292.35294,24.2535319 C290.407837,25.8312262 288.333092,27.2251954 286.128643,28.4354814 C285.739622,29.1270735 285.199324,30.0563863 284.507732,31.2234478 C283.81614,32.3905093 283.135364,33.6223891 282.465385,34.9191241 C281.795405,36.2158592 281.211883,37.4909628 280.714801,38.7444733 C280.217719,39.9979838 279.969182,41.0569682 279.969182,41.9214582 C279.969182,43.3046423 280.595928,43.9962239 281.849439,43.9962239 C282.930051,43.9962239 284.053871,43.6936569 285.220933,43.0885139 C286.387994,42.4833709 287.501008,41.7485654 288.560009,40.8840754 C289.619009,40.0195854 290.613158,39.1010785 291.542484,38.1285273 C292.471811,37.155976 293.260646,36.280693 293.909014,35.502652 C294.211585,35.2000805 294.384481,35.1244387 294.427705,35.2757245 C294.47093,35.4270102 294.406094,35.5890997 294.233196,35.7619977 C293.455155,36.7129367 292.536648,37.7286972 291.477648,38.8093098 C290.418648,39.8899223 289.294828,40.8840709 288.106154,41.7917854 C286.91748,42.6994999 285.674794,43.4559173 284.378059,44.0610603 C283.081324,44.6662033 281.784609,44.9687703 280.487874,44.9687703 C279.364037,44.9687703 278.553589,44.6986212 278.056508,44.158315 C277.559426,43.6180087 277.310889,42.958845 277.310889,42.180804 C277.310889,41.4027629 277.645874,40.2897487 278.315853,38.841728 C278.985833,37.3937072 279.774668,35.8700664 280.682383,34.2707599 C281.590097,32.6714533 282.497798,31.1586185 283.405513,29.73221 C284.313227,28.3058015 284.983197,27.2252051 285.415442,26.4903886 C286.150259,25.2368781 286.917482,23.9293566 287.717135,22.5677848 C288.516788,21.206213 289.305624,19.8770796 290.083665,18.5803446 L292.320522,14.85225 C293.033726,13.6635762 293.69289,12.6153978 294.298033,11.7076833 C295.032849,10.5838463 295.789266,9.52486189 296.567307,8.53069838 C297.345348,7.53653486 298.339497,6.54238626 299.549783,5.54822274 C301.192314,4.16503872 302.705149,3.10605433 304.088333,2.37123782 C305.471517,1.63642131 306.40083,1.26901856 306.876299,1.26901856 C307.222095,1.26901856 307.50305,1.36627223 307.719173,1.56078248 C307.935295,1.75529274 308.043355,2.04705374 308.043355,2.43607425 Z M305.125716,4.12182135 C305.125716,3.43022933 304.844761,3.08443852 304.282842,3.08443852 C304.06672,3.08443852 303.828989,3.14927429 303.569642,3.2789478 C303.310295,3.4086213 302.97531,3.67877038 302.564677,4.08940313 C302.154044,4.50003589 301.65697,5.07275193 301.073439,5.80756845 C300.489908,6.54238496 299.744297,7.49330971 298.836582,8.66037123 C298.490786,9.13584074 298.004518,9.82742238 297.377763,10.7351369 C296.751008,11.6428514 295.951366,12.8423133 294.978815,14.3335586 C294.006264,15.8248039 292.83922,17.6618176 291.477648,19.8446549 C290.116076,22.0274922 288.505988,24.6101173 286.647334,27.5926079 C289.240804,26.1229749 291.672146,24.339991 293.941432,22.2436027 C296.210718,20.1472144 298.166598,17.9968277 299.809129,15.7923782 C301.45166,13.5879287 302.748375,11.448348 303.699314,9.37357193 C304.650253,7.29879589 305.125716,5.54822987 305.125716,4.12182135 Z M311.998377,33.687232 C311.263561,34.6813955 310.366666,35.5782905 309.307665,36.3779437 C308.248665,37.177597 307.049203,37.5774176 305.709244,37.5774176 C304.974427,37.5774176 304.250428,37.3937163 303.537223,37.026308 C302.824019,36.6588998 302.251303,36.1077956 301.819058,35.3729791 C301.516487,36.0645711 301.127472,36.8534064 300.652002,37.7395087 C300.176533,38.625611 299.614623,39.5116999 298.966255,40.3978022 C298.317888,41.2839045 297.593888,42.0943517 296.794235,42.8291682 C295.994582,43.5639847 295.140911,44.1691187 294.233196,44.6445882 C293.455155,44.9903842 292.806797,45.1632796 292.288103,45.1632796 C290.732021,45.1632796 289.953992,44.471698 289.953992,43.0885139 C289.953992,42.3104729 290.094469,41.5108316 290.375429,40.6895661 C290.656388,39.8683006 291.012985,39.0686593 291.44523,38.2906183 C291.877475,37.5125773 292.342131,36.7777718 292.839213,36.0861798 C293.336295,35.3945878 293.800951,34.8326777 294.233196,34.4004327 C295.140911,33.4062692 296.178283,32.5634041 297.345345,31.8718121 C298.512406,31.1802201 299.765898,30.7695935 301.105857,30.63992 C301.192306,30.294124 301.321978,29.8943033 301.494876,29.4404461 C301.667774,28.9865888 301.970341,28.7164397 302.402586,28.6299907 L303.05095,28.5003179 C303.267073,28.4570934 303.46158,28.3922576 303.634478,28.3058086 C303.764152,28.2193596 303.893823,28.2085536 304.023497,28.2733904 C304.15317,28.3382271 304.174782,28.4570927 304.088333,28.6299907 C303.785761,29.1054602 303.558836,29.7105942 303.407551,30.4454107 C303.256265,31.1802272 303.180623,31.9798685 303.180623,32.8443585 C303.180623,34.0546445 303.407548,35.0487931 303.861406,35.8268341 C304.315263,36.6048751 305.104098,36.9938898 306.227935,36.9938898 C307.351772,36.9938898 308.367533,36.6264871 309.275247,35.8916705 C310.182962,35.156854 310.939379,34.3572128 311.544522,33.4927227 C311.630971,33.2766002 311.771449,33.2117645 311.965959,33.2982135 C312.160469,33.3846625 312.171275,33.514334 311.998377,33.687232 Z M301.300367,34.141087 C301.213918,33.7520665 301.149082,33.2982161 301.105857,32.779522 C301.062633,32.260828 301.041021,31.7637537 301.041021,31.2882842 C301.041021,31.0721617 300.954573,30.9641021 300.781675,30.9641021 C300.306206,30.9641021 299.809131,31.1261915 299.290437,31.4503753 C298.771743,31.7745591 298.253057,32.2067976 297.734363,32.7471038 C297.215669,33.2874101 296.696983,33.90335 296.178289,34.594942 C295.659595,35.286534 295.184133,35.9997276 294.751888,36.7345441 C294.189969,37.6854831 293.682089,38.7120496 293.228231,39.8142744 C292.774374,40.9164991 292.569061,41.9646776 292.612285,42.9588411 C292.612285,43.2614126 292.666315,43.5423676 292.774377,43.8017146 C292.882438,44.0610616 293.130975,44.1907332 293.519995,44.1907332 C294.254812,44.1907332 295.054453,43.7801066 295.918943,42.9588411 C296.783433,42.1375756 297.604686,41.1758448 298.382727,40.0736201 C299.160768,38.9713953 299.819932,37.8583811 300.360238,36.7345441 C300.900545,35.6107071 301.213918,34.74623 301.300367,34.141087 Z M321.075477,31.4827935 C320.81613,31.785365 320.545981,32.1527678 320.265022,32.5850128 C319.984062,33.0172578 319.800361,33.3414367 319.713912,33.5575592 C319.670687,33.6872327 319.58424,33.7520685 319.454566,33.7520685 C319.411342,33.7520685 319.346506,33.6872327 319.260057,33.5575592 C319.173608,33.4278857 319.054742,33.2874081 318.903457,33.1361224 C318.752171,32.9848366 318.546858,32.8443591 318.287511,32.7146856 C318.028163,32.5850121 317.660761,32.5201763 317.185291,32.5201763 C316.623373,32.5201763 315.996627,32.7146837 315.305035,33.1037042 C314.613443,33.4927247 314.008309,33.9249632 313.489615,34.4004327 C312.668349,35.0920247 311.94435,35.8484421 311.317595,36.6697077 C310.690839,37.4909732 310.096511,38.3446443 309.534593,39.2307465 C308.972674,40.1168488 308.432376,41.0245497 307.913682,41.9538765 C307.394988,42.8832032 306.833078,43.823322 306.227935,44.774261 C306.184711,44.9039345 306.055039,44.9687703 305.838917,44.9687703 C305.752468,44.9687703 305.568766,44.8390988 305.287807,44.5797517 C305.006848,44.3204047 304.86637,44.1258974 304.86637,43.9962239 C304.86637,43.7368769 305.017654,43.3478622 305.320225,42.8291682 C306.011817,41.6188822 306.714205,40.3978084 307.427409,39.1659101 C308.140613,37.9340118 308.810583,36.7777738 309.437338,35.6971613 C310.064093,34.6165487 310.615198,33.67643 311.090667,32.8767767 C311.566137,32.0771234 311.890316,31.4827955 312.063214,31.0937749 C312.279336,30.7047544 312.43062,30.5102471 312.517069,30.5102471 C312.603518,30.5102471 312.819637,30.6183067 313.165433,30.8344292 C313.511229,31.0505517 313.684124,31.3531187 313.684124,31.7421392 C313.684124,31.8718127 313.608482,32.087932 313.457197,32.3905035 C313.305911,32.693075 313.133016,33.0064479 312.938505,33.3306317 C312.743995,33.6548154 312.560294,33.9681884 312.387396,34.2707599 C312.214498,34.5733314 312.084826,34.7894506 311.998377,34.9191241 C311.868704,35.1352466 311.847092,35.2433063 311.933541,35.2433063 C312.01999,35.2433063 312.128049,35.1784705 312.257723,35.048797 C312.689968,34.616552 313.21946,34.1410896 313.846215,33.6223956 C314.472971,33.1037016 315.132134,32.6174332 315.823726,32.163576 C316.515318,31.7097187 317.196094,31.33151 317.866074,31.0289385 C318.536053,30.726367 319.130381,30.5750835 319.649075,30.5750835 C320.038096,30.5750835 320.373081,30.6723372 320.65404,30.8668475 C320.934999,31.0613577 321.075477,31.266671 321.075477,31.4827935 Z M320.29744,43.9962239 C319.692297,43.9962239 319.216834,43.8665523 318.871038,43.6072053 C318.525242,43.3478583 318.352347,42.9588437 318.352347,42.4401497 C318.352347,41.5756596 318.881839,40.28975 319.940839,38.5823823 C320.99984,36.8750145 322.285749,34.8542994 323.798607,32.5201763 C323.971505,32.3040538 324.111982,32.1419644 324.220044,32.0339031 C324.328105,31.9258419 324.44697,31.8285882 324.576644,31.7421392 C324.792766,31.6989147 325.084527,31.6448849 325.451936,31.5800481 C325.819344,31.5152114 326.046269,31.4827935 326.132718,31.4827935 C326.305616,31.4827935 326.392064,31.5476293 326.392064,31.6773028 C324.835982,34.4004463 323.52846,36.6156688 322.46946,38.3230365 C321.41046,40.0304043 320.880968,41.3595378 320.880968,42.3104768 C320.880968,42.8291708 321.118699,43.0885139 321.594168,43.0885139 C321.810291,43.0885139 322.091246,43.0236782 322.437042,42.8940046 C322.782838,42.7643311 323.150241,42.5914357 323.539261,42.3753132 C323.928282,42.1591907 324.295684,41.9322655 324.64148,41.6945308 C324.987276,41.456796 325.246619,41.2298708 325.419517,41.0137483 C325.808538,40.6247278 326.381254,39.7062209 327.137683,38.2582001 C327.894112,36.8101793 328.812618,35.1136431 329.893231,33.1685406 C330.411925,32.2176016 330.898193,31.4179603 331.352051,30.7695928 C331.805908,30.1212253 332.184116,29.7970464 332.486688,29.7970464 C332.659586,29.8834954 332.821675,30.0996147 332.972961,30.4454107 C333.124247,30.7912067 333.199889,31.1369975 333.199889,31.4827935 C333.199889,31.6556915 333.005381,32.0555121 332.616361,32.6822674 C332.22734,33.3090227 331.730266,34.0438282 331.125123,34.8867059 C330.51998,35.7295837 329.860816,36.6264786 329.147612,37.5774176 C328.434408,38.5283567 327.753632,39.4144456 327.105265,40.2357111 C325.549183,42.6130587 323.982318,45.0660123 322.404624,47.5946456 C320.826929,50.1232789 319.238453,52.5654266 317.639146,54.9211618 C316.03984,57.2768971 314.397333,59.5029255 312.711578,61.5993138 C311.025822,63.6957021 309.286062,65.5219099 307.492245,67.0779919 C305.698429,68.6340739 303.839803,69.8659537 301.916313,70.7736682 C299.992822,71.6813827 297.972107,72.1352332 295.854107,72.1352332 C294.600596,72.1352332 293.476776,71.8326662 292.482613,71.2275232 C291.488449,70.6223802 290.991375,69.5633958 290.991375,68.0505383 C290.991375,67.7047423 291.023793,67.3481455 291.088629,66.9807373 C291.153466,66.613329 291.229108,66.321568 291.315557,66.1054455 C291.358781,65.975772 291.423617,65.8893243 291.510066,65.8460998 C291.596515,65.8028753 291.639739,65.8677111 291.639739,66.0406091 C291.639739,67.2076706 292.071978,68.266655 292.936468,69.217594 C293.800958,70.168533 295.335404,70.6439954 297.539854,70.6439954 C299.312058,70.6439954 301.07343,70.2009509 302.824023,69.3148486 C304.574615,68.4287464 306.281957,67.2508964 307.9461,65.7812634 C309.610244,64.3116303 311.220332,62.6042882 312.776414,60.6591856 C314.332496,58.7140831 315.834525,56.682562 317.282546,54.5645615 C318.730567,52.446561 320.102924,50.3177862 321.399659,48.1781734 C322.696394,46.0385607 323.88505,44.0178456 324.965662,42.1159675 C325.052111,41.9430695 325.052111,41.8782337 324.965662,41.9214582 C324.879213,41.9646827 324.814378,42.0079066 324.771153,42.0511311 C324.295684,42.4401516 323.647326,42.8615842 322.82606,43.3154414 C322.004795,43.7692987 321.16193,43.9962239 320.29744,43.9962239 Z M349.992523,18.7100174 C350.165421,18.7964664 350.230257,18.904526 350.187033,19.0341995 C350.143808,19.163873 350.05736,19.2287088 349.927687,19.2287088 C349.365768,19.2287088 348.868694,19.4016042 348.436449,19.7474002 C347.48551,20.5254412 346.534585,21.5844256 345.583646,22.9243852 C344.632707,24.2643447 343.703394,25.7663735 342.79568,27.4305168 C341.887965,29.0946601 341.001876,30.8560321 340.137386,32.7146856 C339.272896,34.5733392 338.430031,36.4535767 337.608766,38.3554548 C337.522317,38.5283528 337.414257,38.5931885 337.284584,38.549964 C337.15491,38.5067395 337.090074,38.3986799 337.090074,38.2257819 C338.386809,34.5084748 339.651107,31.1586263 340.883005,28.1761357 C342.114904,25.1936452 343.314365,22.5786021 344.481427,20.3309281 C345.173019,18.9909686 346.210391,18.3209988 347.593575,18.3209988 C347.939371,18.3209988 348.360804,18.3642227 348.857886,18.4506717 C349.354968,18.5371207 349.733176,18.6235684 349.992523,18.7100174 Z M337.803275,42.8291682 C337.803275,43.4343112 337.587156,43.9638034 337.154911,44.4176607 C336.722666,44.8715179 336.225591,45.0984432 335.663673,45.0984432 C334.842407,45.0984432 334.431781,44.6878166 334.431781,43.8665511 C334.431781,43.261408 334.583064,42.677886 334.885636,42.1159675 C335.188207,41.554049 335.685282,41.273094 336.376874,41.273094 C336.852343,41.273094 337.20894,41.4243775 337.446675,41.726949 C337.684409,42.0295205 337.803275,42.3969232 337.803275,42.8291682 Z" id="To-God-be-the-Glory!" fill="#000000"></path>
    </g>
</svg>